<?xml version="1.0" encoding="UTF-8" standalone="no"?>
<!-- Created with Inkscape (http://www.inkscape.org/) -->

<svg
   width="10.671619mm"
   height="9.9796371mm"
   viewBox="0 0 10.671619 9.9796371"
   version="1.1"
   id="svg5"
   inkscape:version="1.2-beta (1b65182, 2022-04-05)"
   xml:space="preserve"
   sodipodi:docname="ui.svg"
   xmlns:inkscape="http://www.inkscape.org/namespaces/inkscape"
   xmlns:sodipodi="http://sodipodi.sourceforge.net/DTD/sodipodi-0.dtd"
   xmlns="http://www.w3.org/2000/svg"
   xmlns:svg="http://www.w3.org/2000/svg"><sodipodi:namedview
     id="namedview7"
     pagecolor="#2e2e2e"
     bordercolor="#666666"
     borderopacity="1.0"
     inkscape:pageshadow="2"
     inkscape:pageopacity="0"
     inkscape:pagecheckerboard="true"
     inkscape:document-units="mm"
     showgrid="false"
     borderlayer="true"
     inkscape:showpageshadow="false"
     inkscape:snap-page="true"
     inkscape:deskcolor="#2e2e2e"
     inkscape:zoom="0.5946522"
     inkscape:cx="0.84082763"
     inkscape:cy="411.16471"
     inkscape:window-width="1920"
     inkscape:window-height="994"
     inkscape:window-x="0"
     inkscape:window-y="0"
     inkscape:window-maximized="1"
     inkscape:current-layer="layer1" /><defs
     id="defs2" /><g
     inkscape:label="Capa 1"
     inkscape:groupmode="layer"
     id="layer1"
     transform="translate(-18.380469,-106.72233)"><path
       style="fill:#ffffff;stroke-width:0.999994"
       d="m 19.055406,116.67459 c -0.06075,-0.0169 -0.11678,-0.0313 -0.124508,-0.0318 -0.0076,-4.8e-4 -0.07364,-0.0408 -0.146468,-0.0894 -0.150695,-0.10062 -0.266312,-0.25389 -0.3416,-0.45282 l -0.05016,-0.13254 -0.0061,-3.17565 -0.0061,-3.17565 h 5.335808 5.33581 l -0.0058,3.15403 -0.0058,3.15402 -0.07071,0.14312 c -0.123858,0.25072 -0.39678,0.48008 -0.689855,0.57977 l -0.145187,0.0494 -4.48456,0.004 c -3.777237,0.003 -4.501981,-4.8e-4 -4.595017,-0.0267 z m 2.443686,-1.50687 c 0.03554,-0.0211 0.0843,-0.0788 0.108343,-0.12848 0.03912,-0.0808 0.04358,-0.13544 0.04247,-0.51963 -0.0014,-0.47035 -0.01655,-0.55207 -0.116332,-0.62608 -0.05901,-0.0438 -0.08941,-0.0463 -0.567208,-0.0463 -0.711889,0 -0.684077,-0.0276 -0.684556,0.68041 -4.73e-4,0.70506 -0.02919,0.67605 0.670054,0.67733 0.418678,8.5e-4 0.491165,-0.004 0.547233,-0.0372 z m 2.6636,-0.005 c 0.100935,-0.0615 0.11709,-0.14857 0.11709,-0.63067 0,-0.47856 -0.01534,-0.56201 -0.116509,-0.63418 -0.06756,-0.0482 -0.09312,-0.051 -0.523897,-0.058 -0.504065,-0.008 -0.584786,0.005 -0.672159,0.1088 l -0.05687,0.0676 v 0.49646 c 0,0.72404 -0.03272,0.69097 0.684834,0.69213 0.454251,8.5e-4 0.503123,-0.003 0.567498,-0.0421 z m 2.696051,-0.0292 0.06121,-0.0613 v -0.53895 -0.53896 l -0.05391,-0.0574 c -0.08677,-0.0923 -0.173113,-0.10496 -0.665114,-0.0971 -0.6603,0.0106 -0.645565,-0.006 -0.63528,0.71482 0.0063,0.43814 0.01,0.47563 0.05303,0.53355 0.0849,0.11422 0.110702,0.11857 0.665676,0.1123 l 0.513167,-0.006 z m -5.353813,-2.9615 c 0.12347,-0.081 0.145195,-0.17799 0.145733,-0.65068 5.2e-4,-0.46537 -0.013,-0.53446 -0.12132,-0.61966 -0.05834,-0.0459 -0.08156,-0.0478 -0.55606,-0.0478 -0.727202,0 -0.697157,-0.0309 -0.687427,0.70631 0.0066,0.50126 0.007,0.5057 0.06068,0.56269 0.0297,0.0317 0.08439,0.0666 0.121502,0.0778 0.03712,0.0112 0.271756,0.0185 0.521413,0.0161 0.397916,-0.003 0.461517,-0.009 0.515477,-0.0447 z m 2.596298,0.0225 c 0.04138,-0.0145 0.09606,-0.0544 0.121503,-0.0887 0.0428,-0.0577 0.0468,-0.0964 0.05354,-0.51916 0.0081,-0.50826 -0.0048,-0.58864 -0.108792,-0.67613 l -0.06757,-0.0568 H 23.60345 c -0.72458,0 -0.693088,-0.0316 -0.693088,0.69308 v 0.49646 l 0.05705,0.0678 c 0.03138,0.0373 0.08854,0.0769 0.127026,0.0881 0.105994,0.0307 0.916634,0.0269 1.006782,-0.005 z m 2.659712,0.005 c 0.05644,-0.0156 0.09808,-0.0464 0.126943,-0.0937 0.03915,-0.0642 0.04296,-0.11412 0.04304,-0.56308 8.4e-5,-0.71999 0.03096,-0.68926 -0.691721,-0.68926 -0.474508,0 -0.497717,0.002 -0.556059,0.0478 -0.108892,0.0857 -0.121807,0.15319 -0.121807,0.63695 0,0.32431 0.0081,0.46259 0.03012,0.51534 0.03048,0.0729 0.101559,0.13328 0.180666,0.15337 0.08551,0.0217 0.906039,0.0156 0.98882,-0.008 z m -8.378939,-3.93632 c 4.17e-4,-0.7049 0.01697,-0.84932 0.120798,-1.05424 0.0727,-0.14345 0.211434,-0.29582 0.335636,-0.36861 0.174676,-0.10236 0.285259,-0.11747 0.861744,-0.11776 l 0.534318,-2.6e-4 0.0069,0.54677 c 0.0067,0.5235 0.009,0.55018 0.05699,0.62725 0.108306,0.17417 0.361075,0.20352 0.505849,0.0588 0.04464,-0.0446 0.08509,-0.11286 0.09677,-0.16319 0.01103,-0.0477 0.0203,-0.3077 0.02059,-0.57804 l 5.2e-4,-0.49154 h 2.64957 2.649573 l 0.0069,0.54677 c 0.0067,0.5235 0.009,0.55019 0.05698,0.62726 0.125178,0.20129 0.437458,0.20129 0.562635,0 0.04792,-0.0771 0.05035,-0.10376 0.05698,-0.62726 l 0.0069,-0.54677 0.534318,3.9e-4 c 0.378121,2.8e-4 0.577955,0.01 0.683595,0.0321 0.338227,0.0717 0.667871,0.32244 0.813357,0.61876 l 0.07566,0.15409 0.0069,0.6909 0.0069,0.69091 h -5.325446 -5.325454 z"
       id="path1901" /></g></svg>
