<?xml version="1.0" encoding="UTF-8" standalone="no"?>
<!-- Created with Inkscape (http://www.inkscape.org/) -->

<svg
   width="10.641472mm"
   height="10.621323mm"
   viewBox="0 0 10.641472 10.621323"
   version="1.1"
   id="svg5"
   inkscape:version="1.2-beta (1b65182, 2022-04-05)"
   xml:space="preserve"
   sodipodi:docname="ui.svg"
   xmlns:inkscape="http://www.inkscape.org/namespaces/inkscape"
   xmlns:sodipodi="http://sodipodi.sourceforge.net/DTD/sodipodi-0.dtd"
   xmlns="http://www.w3.org/2000/svg"
   xmlns:svg="http://www.w3.org/2000/svg"><sodipodi:namedview
     id="namedview7"
     pagecolor="#2e2e2e"
     bordercolor="#666666"
     borderopacity="1.0"
     inkscape:pageshadow="2"
     inkscape:pageopacity="0"
     inkscape:pagecheckerboard="true"
     inkscape:document-units="mm"
     showgrid="false"
     borderlayer="true"
     inkscape:showpageshadow="false"
     inkscape:snap-page="true"
     inkscape:deskcolor="#2e2e2e"
     inkscape:zoom="0.5946522"
     inkscape:cx="0.84082763"
     inkscape:cy="411.16471"
     inkscape:window-width="1920"
     inkscape:window-height="994"
     inkscape:window-x="0"
     inkscape:window-y="0"
     inkscape:window-maximized="1"
     inkscape:current-layer="layer1" /><defs
     id="defs2" /><g
     inkscape:label="Capa 1"
     inkscape:groupmode="layer"
     id="layer1"
     transform="translate(-18.407704,-252.05268)"><path
       style="fill:#ffffff;stroke-width:1"
       d="m 22.969169,262.64989 c -0.08367,-0.037 -0.169578,-0.14154 -0.194754,-0.23701 -0.01121,-0.0423 -0.08067,-0.31871 -0.154481,-0.61419 -0.0738,-0.29547 -0.142044,-0.5447 -0.151643,-0.55383 -0.0096,-0.009 -0.101589,-0.0488 -0.204425,-0.0882 -0.102834,-0.0394 -0.239478,-0.0956 -0.303653,-0.12504 l -0.116683,-0.0534 -0.530061,0.3181 c -0.291533,0.17495 -0.563304,0.32906 -0.603937,0.34248 -0.167248,0.0551 -0.187227,0.0413 -0.743978,-0.5154 -0.556749,-0.55675 -0.570591,-0.57673 -0.515393,-0.74399 0.01341,-0.0407 0.167523,-0.31239 0.342477,-0.60392 l 0.318094,-0.53006 -0.05348,-0.11669 c -0.02942,-0.0642 -0.08569,-0.20082 -0.12504,-0.30366 -0.03935,-0.10282 -0.07877,-0.19457 -0.0876,-0.20385 -0.0088,-0.009 -0.297709,-0.0893 -0.641955,-0.178 -0.669095,-0.17221 -0.703463,-0.18701 -0.763963,-0.32901 -0.04132,-0.0969 -0.04132,-1.36895 0,-1.46593 0.0605,-0.14198 0.09486,-0.15678 0.763963,-0.329 0.344246,-0.0886 0.633125,-0.1687 0.641955,-0.17799 0.0088,-0.009 0.04825,-0.10102 0.0876,-0.20386 0.03935,-0.10282 0.09562,-0.23948 0.12504,-0.30366 l 0.05348,-0.11668 -0.318094,-0.53006 c -0.174954,-0.29153 -0.329067,-0.56331 -0.342477,-0.60394 -0.05519,-0.16725 -0.04136,-0.18722 0.515393,-0.74398 0.556751,-0.55675 0.57673,-0.57059 0.743978,-0.51539 0.04063,0.0134 0.312404,0.16752 0.603937,0.34247 l 0.530061,0.3181 0.116683,-0.0534 c 0.06417,-0.0294 0.20082,-0.0857 0.303653,-0.12504 0.102835,-0.0394 0.195092,-0.0793 0.205016,-0.0888 0.01,-0.009 0.08579,-0.29917 0.168582,-0.6438 0.153027,-0.63697 0.173287,-0.69155 0.288799,-0.77778 0.05538,-0.0413 0.08254,-0.0428 0.781431,-0.0428 0.698893,0 0.726053,0.001 0.781429,0.0428 0.115512,0.0863 0.135773,0.14081 0.2888,0.77778 0.08279,0.34463 0.158656,0.63433 0.168581,0.6438 0.01,0.009 0.102178,0.0494 0.205017,0.0888 0.102835,0.0394 0.239477,0.0956 0.303654,0.12504 l 0.116683,0.0534 0.530059,-0.3181 c 0.291533,-0.17495 0.563305,-0.32906 0.603937,-0.34247 0.167249,-0.0551 0.187228,-0.0413 0.743978,0.51539 0.55675,0.55676 0.570591,0.57673 0.515394,0.74398 -0.01341,0.0406 -0.167524,0.31241 -0.342476,0.60394 l -0.318096,0.53006 0.05343,0.11668 c 0.02939,0.0642 0.08715,0.20384 0.128352,0.31034 0.04121,0.10656 0.08895,0.20117 0.106085,0.21036 0.01713,0.009 0.309687,0.0842 0.650106,0.1668 0.667484,0.16188 0.715633,0.18212 0.775771,0.32605 0.04104,0.0982 0.04104,1.36964 0,1.46787 -0.06014,0.14393 -0.108281,0.16416 -0.775771,0.32604 -0.340419,0.0826 -0.632967,0.15761 -0.650106,0.16679 -0.01713,0.009 -0.06488,0.10385 -0.106085,0.21036 -0.04121,0.10656 -0.09896,0.24618 -0.128352,0.31035 l -0.05343,0.11669 0.318096,0.53006 c 0.174952,0.29153 0.329066,0.5633 0.342476,0.60392 0.05519,0.16726 0.04136,0.18724 -0.515394,0.74399 -0.55675,0.55675 -0.576729,0.57059 -0.743978,0.5154 -0.04063,-0.0134 -0.312404,-0.16753 -0.603937,-0.34248 l -0.530059,-0.3181 -0.116683,0.0534 c -0.06417,0.0294 -0.200822,0.0857 -0.303654,0.12504 -0.102834,0.0394 -0.194835,0.079 -0.204447,0.0882 -0.0096,0.009 -0.086,0.2902 -0.169733,0.62456 -0.153259,0.61193 -0.176336,0.67248 -0.288184,0.75603 -0.05493,0.041 -0.0867,0.043 -0.756985,0.0477 -0.550058,0.003 -0.713196,-0.001 -0.763003,-0.0232 z m 1.040454,-3.74257 c 0.309621,-0.064 0.575421,-0.2067 0.796455,-0.42774 0.610437,-0.61044 0.610437,-1.58633 0,-2.19677 -0.878142,-0.87814 -2.372265,-0.42471 -2.624505,0.79646 -0.221353,1.07164 0.756415,2.0494 1.82805,1.82805 z"
       id="path1973" /></g></svg>
