<?xml version="1.0" encoding="UTF-8" standalone="no"?>
<!-- Created with Inkscape (http://www.inkscape.org/) -->

<svg
   width="10.653925mm"
   height="10.650743mm"
   viewBox="0 0 10.653925 10.650743"
   version="1.1"
   id="svg5"
   xml:space="preserve"
   xmlns="http://www.w3.org/2000/svg"
   xmlns:svg="http://www.w3.org/2000/svg"><defs
     id="defs2" /><g
     id="layer1"
     transform="translate(-18.399767,-10.811495)"><path
       style="fill:#ffffff;stroke-width:0.999999"
       d="m 18.988231,21.445409 c -0.221882,-0.05308 -0.42028,-0.218164 -0.523983,-0.435991 l -0.06448,-0.135416 v -2.521255 -2.521254 l 0.06834,-0.138829 c 0.114636,-0.232858 0.328206,-0.392506 0.580308,-0.433792 0.176182,-0.02886 3.423719,-0.02663 3.581033,0.0025 0.330968,0.06118 0.572675,0.302551 0.633055,0.632168 0.02927,0.159722 0.03149,4.737536 0.0025,4.915193 -0.04128,0.252086 -0.200931,0.465663 -0.433773,0.580308 l -0.138808,0.06834 -1.812947,0.0035 c -1.013123,0.0019 -1.847449,-0.0048 -1.891155,-0.01531 z m 5.753783,-0.0059 c -0.289146,-0.07881 -0.51224,-0.329422 -0.561607,-0.630863 -0.02821,-0.172261 -0.02616,-2.092636 0.0025,-2.248545 0.06136,-0.334958 0.3064,-0.575294 0.646336,-0.633929 0.09179,-0.01583 0.673083,-0.02103 1.872668,-0.01674 l 1.739572,0.0062 0.119722,0.04835 c 0.167122,0.06749 0.331738,0.223925 0.416231,0.395554 l 0.06821,0.138554 v 1.18793 1.18793 l -0.06447,0.135415 c -0.08194,0.172105 -0.211343,0.30151 -0.383446,0.383445 l -0.135416,0.06448 -1.812488,0.0041 c -1.392603,0.0031 -1.834547,-0.0019 -1.907709,-0.02187 z m 0.04314,-4.437364 c -0.316322,-0.07008 -0.542874,-0.306153 -0.602299,-0.627605 -0.02956,-0.159839 -0.03156,-4.736503 -0.0022,-4.916025 0.04178,-0.255177 0.213098,-0.478191 0.454097,-0.591148 l 0.119126,-0.05584 h 1.854155 1.854154 l 0.135417,0.06448 c 0.172103,0.08194 0.301508,0.21134 0.383444,0.383443 l 0.06448,0.135417 0.0064,2.4479 c 0.0048,1.804494 1.05e-4,2.478017 -0.01778,2.562483 -0.05197,0.245515 -0.241945,0.472877 -0.473131,0.566233 l -0.119721,0.04835 -1.770822,0.0039 c -1.327971,0.0029 -1.799505,-0.0025 -1.88543,-0.02154 z m -5.755559,-2.66019 c -0.231117,-0.03887 -0.451157,-0.208345 -0.561474,-0.43243 l -0.06834,-0.138828 v -1.187931 -1.18793 l 0.06448,-0.135415 c 0.03545,-0.07448 0.105769,-0.176717 0.156248,-0.227196 0.05049,-0.05049 0.152718,-0.120791 0.227196,-0.156249 l 0.135416,-0.06448 h 1.854155 1.854154 l 0.119125,0.05583 c 0.241002,0.112958 0.412313,0.335973 0.4541,0.591149 0.02846,0.173766 0.02659,2.093727 -0.0022,2.249376 -0.06058,0.327769 -0.305236,0.572414 -0.633004,0.633004 -0.14459,0.02673 -3.441509,0.02772 -3.599864,0.001 z"
       id="path300" /></g></svg>
