<?xml version="1.0" encoding="UTF-8" standalone="no"?>
<!-- Created with Inkscape (http://www.inkscape.org/) -->

<svg
   width="83.144875"
   height="84.55378"
   viewBox="0 0 21.998748 22.371521"
   version="1.1"
   id="svg5"
   inkscape:version="1.2-beta (1b65182, 2022-04-05)"
   xml:space="preserve"
   sodipodi:docname="UI.svg"
   inkscape:export-filename="user.svg"
   inkscape:export-xdpi="192"
   inkscape:export-ydpi="192"
   xmlns:inkscape="http://www.inkscape.org/namespaces/inkscape"
   xmlns:sodipodi="http://sodipodi.sourceforge.net/DTD/sodipodi-0.dtd"
   xmlns="http://www.w3.org/2000/svg"
   xmlns:svg="http://www.w3.org/2000/svg"><sodipodi:namedview
     id="namedview7"
     pagecolor="#2e2e2e"
     bordercolor="#666666"
     borderopacity="1.0"
     inkscape:pageshadow="2"
     inkscape:pageopacity="0"
     inkscape:pagecheckerboard="true"
     inkscape:document-units="px"
     showgrid="false"
     borderlayer="true"
     inkscape:showpageshadow="false"
     inkscape:snap-page="true"
     inkscape:deskcolor="#2e2e2e"
     inkscape:zoom="1.1893044"
     inkscape:cx="340.53519"
     inkscape:cy="769.7777"
     inkscape:window-width="1920"
     inkscape:window-height="994"
     inkscape:window-x="0"
     inkscape:window-y="0"
     inkscape:window-maximized="1"
     inkscape:current-layer="layer1"
     showguides="false"><sodipodi:guide
       position="104.20422,120.87349"
       orientation="0,1"
       id="guide5941" /><sodipodi:guide
       position="64.228529,107.58215"
       orientation="0,1"
       id="guide5943"
       inkscape:label=""
       inkscape:locked="false"
       inkscape:color="rgb(0,134,229)" /><sodipodi:guide
       position="50.99936,154.07222"
       orientation="-1,0"
       id="guide5947"
       inkscape:label=""
       inkscape:locked="false"
       inkscape:color="rgb(0,134,229)" /><sodipodi:guide
       position="45.8845,57.582151"
       orientation="0,1"
       id="guide6029" /><sodipodi:guide
       position="64.228529,44.352981"
       orientation="0,1"
       id="guide6031"
       inkscape:label=""
       inkscape:locked="false"
       inkscape:color="rgb(0,134,229)" /><sodipodi:guide
       position="-411.49232,-138.48035"
       orientation="1,0"
       id="guide6117" /><sodipodi:guide
       position="-398.26314,-163.07457"
       orientation="-1,0"
       id="guide6131"
       inkscape:label=""
       inkscape:locked="false"
       inkscape:color="rgb(0,134,229)" /><sodipodi:guide
       position="-29.10976,82.582151"
       orientation="1,0"
       id="guide6133" /><sodipodi:guide
       position="-42.33893,82.582151"
       orientation="-1,0"
       id="guide6135"
       inkscape:label=""
       inkscape:locked="false"
       inkscape:color="rgb(0,134,229)" /><sodipodi:guide
       position="-165.39011,0.48334181"
       orientation="1,0"
       id="guide6203" /><sodipodi:guide
       position="-151.99286,-9.0893881"
       orientation="-1,0"
       id="guide6205" /><sodipodi:guide
       position="-443.77148,-125.25118"
       orientation="0,1"
       id="guide6209"
       inkscape:label=""
       inkscape:locked="false"
       inkscape:color="rgb(0,134,229)" /><sodipodi:guide
       position="-390.32564,91.203971"
       orientation="-1,0"
       id="guide6832"
       inkscape:label=""
       inkscape:locked="false"
       inkscape:color="rgb(0,134,229)" /></sodipodi:namedview><defs
     id="defs2" /><g
     inkscape:label="Página 1"
     inkscape:groupmode="layer"
     id="layer1"
     transform="translate(-443.77148,-124.89813)"><path
       style="fill:#f14b17;fill-opacity:1;stroke-width:0.999997"
       d="m 453.39387,147.15524 c -0.10966,-0.10967 -0.11439,-0.13933 -0.11439,-0.71725 0,-0.79607 0.0295,-0.76243 -0.86553,-0.98705 -0.38271,-0.096 -0.93702,-0.27342 -1.23182,-0.39418 -0.65482,-0.26822 -0.78453,-0.29348 -0.92276,-0.17969 -0.0571,0.047 -0.24514,0.27425 -0.41783,0.50496 -0.45928,0.61359 -0.42537,0.61779 -1.5602,-0.19324 -1.01273,-0.72377 -1.15407,-0.84732 -1.15407,-1.00887 0,-0.0673 0.13299,-0.29682 0.32474,-0.56038 0.46599,-0.64054 0.46687,-0.66478 0.0416,-1.1343 -0.33737,-0.37254 -0.75709,-0.9512 -1.04607,-1.44222 -0.13856,-0.23545 -0.28523,-0.44086 -0.32593,-0.45648 -0.14394,-0.0553 -0.33324,-0.0268 -0.74219,0.11143 -0.50047,0.16916 -0.67229,0.17665 -0.80268,0.035 -0.0951,-0.10331 -0.80529,-2.21652 -0.80529,-2.39609 0,-0.19277 0.1347,-0.2861 0.66409,-0.46018 0.69306,-0.2279 0.71708,-0.25271 0.68795,-0.71065 -0.0295,-0.46333 -0.0295,-1.70105 0,-2.16437 0.0291,-0.45794 0.005,-0.48275 -0.68795,-0.71065 -0.52939,-0.17408 -0.66409,-0.26742 -0.66409,-0.46018 0,-0.17957 0.71022,-2.29278 0.80529,-2.39609 0.13039,-0.1417 0.30221,-0.13421 0.80268,0.035 0.44613,0.15081 0.66202,0.17342 0.77841,0.0816 0.0406,-0.032 0.18662,-0.24743 0.32447,-0.47865 0.28028,-0.47007 0.68893,-1.02803 1.01804,-1.38995 0.24522,-0.2697 0.32598,-0.40203 0.32598,-0.53418 0,-0.0496 -0.15092,-0.29741 -0.33537,-0.5507 -0.25868,-0.35523 -0.3354,-0.49654 -0.33557,-0.61804 -3.5e-4,-0.19301 -0.02,-0.17556 1.13298,-1.00378 0.92886,-0.66726 1.06449,-0.73076 1.24446,-0.58261 0.0441,0.0363 0.22336,0.2596 0.39831,0.49618 0.20473,0.27685 0.35897,0.4404 0.43277,0.45893 0.0799,0.0201 0.30947,-0.0499 0.75812,-0.23114 0.3539,-0.14296 0.9299,-0.33207 1.28,-0.42025 0.6896,-0.17368 0.80464,-0.21888 0.84859,-0.33342 0.0159,-0.0413 0.0287,-0.33642 0.0287,-0.65592 0,-0.55461 0.005,-0.58607 0.1144,-0.6953 l 0.11441,-0.1144 h 1.26263 1.26265 l 0.11439,0.1144 c 0.10968,0.10967 0.11441,0.13933 0.11441,0.71725 0,0.79771 -0.0292,0.76447 0.86716,0.98598 0.38293,0.0946 0.93698,0.27172 1.2312,0.39353 0.29423,0.12182 0.59862,0.2317 0.67642,0.2442 0.18441,0.0296 0.27245,-0.0458 0.66316,-0.56776 0.46152,-0.61658 0.41617,-0.62319 1.61907,0.23592 0.52687,0.3763 0.98883,0.72826 1.02657,0.78214 0.11817,0.1687 0.0782,0.28492 -0.25612,0.74444 -0.46599,0.64053 -0.46688,0.66477 -0.0416,1.1343 0.33738,0.37254 0.75709,0.9512 1.04607,1.44222 0.13856,0.23544 0.28524,0.44086 0.32594,0.45648 0.14393,0.0553 0.33323,0.0268 0.74219,-0.11143 0.50081,-0.16929 0.67298,-0.1768 0.80025,-0.035 0.0928,0.10341 0.80771,2.22466 0.80771,2.39651 0,0.19231 -0.135,0.28578 -0.66408,0.45976 -0.69307,0.2279 -0.71709,0.25271 -0.68795,0.71065 0.0126,0.19787 0.0229,0.68486 0.0229,1.08219 0,0.39732 -0.0104,0.88431 -0.0229,1.08218 -0.0292,0.45794 -0.005,0.48275 0.68795,0.71065 0.52938,0.17408 0.66408,0.26741 0.66408,0.46018 0,0.17957 -0.71022,2.29278 -0.80529,2.39609 -0.13039,0.14169 -0.30222,0.13421 -0.80267,-0.035 -0.44596,-0.15074 -0.66285,-0.17352 -0.77681,-0.0816 -0.0397,0.032 -0.18442,0.24667 -0.32156,0.47695 -0.24148,0.40548 -0.71138,1.04522 -1.14013,1.55222 -0.11732,0.13873 -0.2084,0.29414 -0.2084,0.35558 0,0.0606 0.14606,0.31386 0.32825,0.5692 0.372,0.52135 0.41199,0.62338 0.30707,0.78351 -0.0802,0.12234 -1.91137,1.47208 -2.04439,1.50687 -0.19348,0.0506 -0.31266,-0.0417 -0.64387,-0.49873 -0.19815,-0.27339 -0.38702,-0.48413 -0.46158,-0.51502 -0.10948,-0.0453 -0.19362,-0.025 -0.63518,0.15412 -0.67187,0.27244 -1.01029,0.38041 -1.62758,0.51931 -0.68299,0.15367 -0.67581,0.14391 -0.67581,0.91757 0,0.57792 -0.005,0.60758 -0.1144,0.71725 l -0.1144,0.1144 h -1.26264 -1.26264 z m 2.36976,-3.31101 c 1.78409,-0.23387 3.25144,-0.95856 4.53028,-2.23741 0.80888,-0.80888 1.34522,-1.60983 1.73669,-2.59347 0.89019,-2.23683 0.71958,-4.74516 -0.4634,-6.81263 -1.13959,-1.99163 -3.05369,-3.35429 -5.3592,-3.81524 -0.76162,-0.15228 -2.11255,-0.15228 -2.87418,0 -2.95377,0.59056 -5.28712,2.71179 -6.08416,5.53108 -0.23371,0.82662 -0.28199,1.19727 -0.28235,2.16726 -3.5e-4,1.03114 0.0813,1.5697 0.37319,2.46081 0.95554,2.91703 3.60707,5.03448 6.6847,5.33825 0.43085,0.0425 1.25981,0.0241 1.73843,-0.0387 z m -1.36558,-2.97416 c -0.22875,-0.0721 -0.61889,-0.47609 -0.68903,-0.7135 -0.12913,-0.437 -0.0381,-0.78536 0.29129,-1.11476 0.24139,-0.24138 0.47743,-0.34797 0.7706,-0.34797 0.5775,0 1.11859,0.54108 1.11859,1.11858 0,0.29318 -0.10659,0.52922 -0.34798,0.77061 -0.32795,0.32795 -0.70967,0.42377 -1.14347,0.28704 z m -0.0193,-3.42298 c -0.0147,-0.0705 -0.25735,-1.43901 -0.53918,-3.04115 -0.28182,-1.60213 -0.52479,-2.97065 -0.53992,-3.04114 l -0.0275,-0.12818 h 1.49886 1.49884 l -0.0275,0.12818 c -0.0151,0.0705 -0.2581,1.43901 -0.53992,3.04114 -0.28183,1.60214 -0.52446,2.97065 -0.53918,3.04115 -0.0264,0.12665 -0.0311,0.12817 -0.39223,0.12817 -0.36111,0 -0.36577,-10e-4 -0.39222,-0.12817 z"
       id="path5582" /></g></svg>
