<?xml version="1.0" encoding="UTF-8" standalone="no"?>
<!-- Created with Inkscape (http://www.inkscape.org/) -->

<svg
   width="44.383148"
   height="31.945618"
   viewBox="0 0 11.743042 8.452278"
   version="1.1"
   id="svg5"
   inkscape:version="1.2-beta (1b65182, 2022-04-05)"
   xml:space="preserve"
   sodipodi:docname="UI.svg"
   inkscape:export-filename="user.svg"
   inkscape:export-xdpi="192"
   inkscape:export-ydpi="192"
   xmlns:inkscape="http://www.inkscape.org/namespaces/inkscape"
   xmlns:sodipodi="http://sodipodi.sourceforge.net/DTD/sodipodi-0.dtd"
   xmlns="http://www.w3.org/2000/svg"
   xmlns:svg="http://www.w3.org/2000/svg"><sodipodi:namedview
     id="namedview7"
     pagecolor="#2e2e2e"
     bordercolor="#666666"
     borderopacity="1.0"
     inkscape:pageshadow="2"
     inkscape:pageopacity="0"
     inkscape:pagecheckerboard="true"
     inkscape:document-units="px"
     showgrid="false"
     borderlayer="true"
     inkscape:showpageshadow="false"
     inkscape:snap-page="true"
     inkscape:deskcolor="#2e2e2e"
     inkscape:zoom="0.84096521"
     inkscape:cx="738.43721"
     inkscape:cy="445.32163"
     inkscape:window-width="1920"
     inkscape:window-height="994"
     inkscape:window-x="0"
     inkscape:window-y="0"
     inkscape:window-maximized="1"
     inkscape:current-layer="layer1"
     showguides="false"><sodipodi:guide
       position="320.62988,83.445759"
       orientation="0,1"
       id="guide5941" /><sodipodi:guide
       position="280.65419,70.154418"
       orientation="0,1"
       id="guide5943"
       inkscape:label=""
       inkscape:locked="false"
       inkscape:color="rgb(0,134,229)" /><sodipodi:guide
       position="267.42502,116.64449"
       orientation="-1,0"
       id="guide5947"
       inkscape:label=""
       inkscape:locked="false"
       inkscape:color="rgb(0,134,229)" /><sodipodi:guide
       position="262.31016,20.154417"
       orientation="0,1"
       id="guide6029" /><sodipodi:guide
       position="280.65419,6.9252472"
       orientation="0,1"
       id="guide6031"
       inkscape:label=""
       inkscape:locked="false"
       inkscape:color="rgb(0,134,229)" /><sodipodi:guide
       position="-195.06667,-175.90809"
       orientation="1,0"
       id="guide6117" /><sodipodi:guide
       position="-181.83749,-200.50231"
       orientation="-1,0"
       id="guide6131"
       inkscape:label=""
       inkscape:locked="false"
       inkscape:color="rgb(0,134,229)" /><sodipodi:guide
       position="187.3159,45.154418"
       orientation="1,0"
       id="guide6133" /><sodipodi:guide
       position="174.08673,45.154418"
       orientation="-1,0"
       id="guide6135"
       inkscape:label=""
       inkscape:locked="false"
       inkscape:color="rgb(0,134,229)" /><sodipodi:guide
       position="51.035548,-36.944394"
       orientation="1,0"
       id="guide6203" /><sodipodi:guide
       position="64.432798,-46.517124"
       orientation="-1,0"
       id="guide6205" /><sodipodi:guide
       position="-227.34583,-162.67892"
       orientation="0,1"
       id="guide6209"
       inkscape:label=""
       inkscape:locked="false"
       inkscape:color="rgb(0,134,229)" /><sodipodi:guide
       position="-173.89999,53.776238"
       orientation="-1,0"
       id="guide6832"
       inkscape:label=""
       inkscape:locked="false"
       inkscape:color="rgb(0,134,229)" /></sodipodi:namedview><defs
     id="defs2" /><g
     inkscape:label="Página 1"
     inkscape:groupmode="layer"
     id="layer1"
     transform="translate(-227.34582,-101.38964)"><g
       id="g12613"
       transform="matrix(0.0866681,0,0,0.0866681,217.72946,94.290249)"
       style="stroke-width:11.5383"><path
         style="fill:#d0d0d0;fill-opacity:1;stroke-width:11.5383"
         d="m 145.96483,179.32479 c 0.40219,-0.0608 0.9975,-0.0592 1.32292,0.004 0.32542,0.0628 -0.004,0.11256 -0.73124,0.11058 -0.7276,-0.002 -0.99386,-0.0534 -0.59168,-0.11419 z m 64.29376,0 c 0.40218,-0.0608 0.99749,-0.0592 1.32291,0.004 0.32542,0.0628 -0.004,0.11256 -0.73124,0.11058 -0.7276,-0.002 -0.99386,-0.0534 -0.59167,-0.11419 z M 121.85974,146.9709 c 0,-0.3638 0.0601,-0.51263 0.13346,-0.33073 0.0734,0.1819 0.0734,0.47956 0,0.66146 -0.0734,0.1819 -0.13346,0.0331 -0.13346,-0.33073 z m 18.42945,-17.37865 c 0.191,-0.0764 0.4192,-0.067 0.50712,0.0209 0.0879,0.0879 -0.0684,0.15045 -0.34727,0.13897 -0.30822,-0.0127 -0.37091,-0.0754 -0.15985,-0.15985 z m 77.52292,-2.91042 c 0.19099,-0.0764 0.4192,-0.067 0.50712,0.0209 0.0879,0.0879 -0.0684,0.15045 -0.34727,0.13896 -0.30822,-0.0127 -0.37092,-0.0754 -0.15985,-0.15985 z m 6.59805,0.005 c 0.1819,-0.0734 0.47955,-0.0734 0.66146,0 0.1819,0.0734 0.0331,0.13346 -0.33073,0.13346 -0.36381,0 -0.51263,-0.0601 -0.33073,-0.13346 z m -48.81563,-26.46548 c 0.25466,-0.0666 0.67138,-0.0666 0.92604,0 0.25466,0.0665 0.0463,0.121 -0.46302,0.121 -0.50932,0 -0.71768,-0.0545 -0.46302,-0.121 z m 2.38629,-0.001 c 0.25743,-0.0671 0.61461,-0.0627 0.79375,0.01 0.17913,0.0725 -0.0315,0.12736 -0.46806,0.12197 -0.43656,-0.005 -0.58313,-0.0647 -0.32569,-0.13178 z"
         id="path12629" /><path
         style="fill:#b9b9b9;fill-opacity:1;stroke-width:11.5383"
         d="m 235.3856,147.23549 c 0,-0.50933 0.0545,-0.71769 0.121,-0.46302 0.0666,0.25466 0.0666,0.67138 0,0.92604 -0.0665,0.25466 -0.121,0.0463 -0.121,-0.46302 z M 177.06628,100.2235 c 0.19099,-0.0764 0.41919,-0.067 0.50711,0.0209 0.0879,0.0879 -0.0683,0.15045 -0.34726,0.13897 -0.30823,-0.0127 -0.37092,-0.0754 -0.15985,-0.15985 z m -10.31875,-7.672921 c 0.19099,-0.07643 0.41919,-0.06703 0.50711,0.02088 0.0879,0.08792 -0.0683,0.150452 -0.34726,0.138964 -0.30823,-0.0127 -0.37092,-0.07539 -0.15985,-0.159851 z m 14.64346,-8.285927 c 0,-0.363803 0.0601,-0.512631 0.13346,-0.33073 0.0734,0.181901 0.0734,0.479558 0,0.661459 -0.0734,0.181901 -0.13346,0.03307 -0.13346,-0.330729 z"
         id="path12627" /><path
         style="fill:#a3a3a3;fill-opacity:1;stroke-width:11.5383"
         d="m 217.81211,129.59225 c 0.19099,-0.0764 0.4192,-0.067 0.50712,0.0209 0.0879,0.0879 -0.0684,0.15045 -0.34727,0.13897 -0.30822,-0.0127 -0.37092,-0.0754 -0.15985,-0.15985 z"
         id="path12625" /><path
         style="fill:#8c8c8c;fill-opacity:1;stroke-width:11.5383"
         d="m 133.26623,129.58963 c 0.25743,-0.0671 0.61462,-0.0627 0.79375,0.01 0.17913,0.0725 -0.0315,0.12736 -0.46805,0.12197 -0.43657,-0.005 -0.58313,-0.0647 -0.3257,-0.13177 z m 4.7625,0 c 0.25743,-0.0671 0.61462,-0.0627 0.79375,0.01 0.17913,0.0725 -0.0315,0.12736 -0.46805,0.12197 -0.43657,-0.005 -0.58313,-0.0647 -0.3257,-0.13177 z m 80.57713,0.003 c 0.19099,-0.0764 0.4192,-0.067 0.50712,0.0209 0.0879,0.0879 -0.0683,0.15046 -0.34727,0.13897 -0.30822,-0.0127 -0.37092,-0.0754 -0.15985,-0.15985 z m 4.88329,-0.003 c 0.25743,-0.0671 0.61462,-0.0627 0.79375,0.01 0.17913,0.0725 -0.0315,0.12736 -0.46806,0.12197 -0.43656,-0.005 -0.58312,-0.0647 -0.32569,-0.13177 z m -87.38368,-22.14154 c 0,-0.0549 0.20836,-0.2633 0.46302,-0.46302 0.41964,-0.32911 0.429,-0.31975 0.0999,0.0999 -0.34564,0.44073 -0.56291,0.58089 -0.56291,0.36313 z"
         id="path12623" /><path
         style="fill:#767676;fill-opacity:1;stroke-width:11.5383"
         d="m 144.77057,172.71335 c 0.32742,-0.0631 0.8632,-0.0631 1.19063,0 0.32742,0.0631 0.0595,0.11466 -0.59532,0.11466 -0.65484,0 -0.92273,-0.0516 -0.59531,-0.11466 z m 66.675,0 c 0.32743,-0.0631 0.86321,-0.0631 1.19063,0 0.32742,0.0631 0.0595,0.11466 -0.59531,0.11466 -0.65485,0 -0.92274,-0.0516 -0.59532,-0.11466 z m -76.99375,-43.11559 c 0.1819,-0.0734 0.47956,-0.0734 0.66146,0 0.1819,0.0734 0.0331,0.13345 -0.33073,0.13345 -0.3638,0 -0.51263,-0.0601 -0.33073,-0.13345 z m 1.98438,-0.007 c 0.25466,-0.0665 0.67138,-0.0665 0.92604,0 0.25466,0.0666 0.0463,0.121 -0.46302,0.121 -0.50933,0 -0.71769,-0.0545 -0.46302,-0.121 z m 83.21146,-0.004 c 0.32742,-0.0631 0.8632,-0.0631 1.19062,0 0.32742,0.0631 0.0595,0.11466 -0.59531,0.11466 -0.65484,0 -0.92274,-0.0516 -0.59531,-0.11466 z m 2.51857,0.003 c 0.25744,-0.0671 0.61462,-0.0627 0.79375,0.01 0.17913,0.0725 -0.0315,0.12737 -0.46805,0.12197 -0.43656,-0.005 -0.58313,-0.0647 -0.3257,-0.13177 z m -85.26701,-22.93527 c 0,-0.0549 0.20836,-0.2633 0.46302,-0.46302 0.41964,-0.32911 0.429,-0.31975 0.0999,0.0999 -0.34564,0.44073 -0.56291,0.58089 -0.56291,0.36313 z"
         id="path12621" /><path
         style="fill:#606060;fill-opacity:1;stroke-width:11.5383"
         d="m 143.72877,172.71933 c 0.191,-0.0764 0.4192,-0.067 0.50712,0.0209 0.0879,0.0879 -0.0684,0.15045 -0.34726,0.13896 -0.30823,-0.0127 -0.37092,-0.0754 -0.15986,-0.15985 z m 69.58542,0 c 0.191,-0.0764 0.4192,-0.067 0.50712,0.0209 0.0879,0.0879 -0.0684,0.15045 -0.34726,0.13896 -0.30823,-0.0127 -0.37092,-0.0754 -0.15986,-0.15985 z m -48.13831,-28.5927 c -0.3291,-0.41964 -0.31974,-0.429 0.0999,-0.0999 0.25466,0.19972 0.46302,0.40808 0.46302,0.46302 0,0.21776 -0.21727,0.0776 -0.56292,-0.36313 z m 26.49209,0.36313 c 0,-0.0549 0.20836,-0.2633 0.46302,-0.46302 0.41964,-0.32911 0.429,-0.31975 0.0999,0.0999 -0.34565,0.44073 -0.56292,0.58089 -0.56292,0.36313 z m -52.05174,-8.81471 c 0.25743,-0.0671 0.61462,-0.0627 0.79375,0.01 0.17913,0.0725 -0.0315,0.12736 -0.46805,0.12197 -0.43657,-0.005 -0.58313,-0.0647 -0.3257,-0.13178 z m 77.52292,0 c 0.25743,-0.0671 0.61462,-0.0627 0.79375,0.01 0.17913,0.0725 -0.0315,0.12736 -0.46806,0.12197 -0.43656,-0.005 -0.58312,-0.0647 -0.32569,-0.13178 z m -81.61246,-6.0828 c 0.191,-0.0764 0.4192,-0.067 0.50712,0.0209 0.0879,0.0879 -0.0683,0.15045 -0.34727,0.13897 -0.30822,-0.0127 -0.37092,-0.0754 -0.15985,-0.15985 z m 2.56315,-24.16093 c 0.26339,-0.29104 0.53842,-0.52917 0.61118,-0.52917 0.0728,0 -0.0832,0.23813 -0.34659,0.52917 -0.26339,0.29104 -0.53843,0.52917 -0.61119,0.52917 -0.0728,0 0.0832,-0.23813 0.3466,-0.52917 z"
         id="path12619" /><path
         style="fill:#494949;fill-opacity:1;stroke-width:11.5383"
         d="m 164.54818,172.3709 c 0.26339,-0.29104 0.53842,-0.52916 0.61118,-0.52916 0.0728,0 -0.0832,0.23812 -0.3466,0.52916 -0.26339,0.29105 -0.53842,0.52917 -0.61118,0.52917 -0.0728,0 0.0832,-0.23812 0.3466,-0.52917 z m 28.02069,-0.0661 -0.50403,-0.59531 0.59532,0.50402 c 0.55944,0.47367 0.71576,0.6866 0.50402,0.6866 -0.0502,0 -0.31809,-0.26789 -0.59531,-0.59531 z m 40.3741,-0.0337 c 0,-0.0549 0.20836,-0.2633 0.46302,-0.46302 0.41965,-0.32911 0.429,-0.31975 0.0999,0.0999 -0.34565,0.44073 -0.56292,0.58089 -0.56292,0.36313 z m -94.5224,-36.58784 c 0.1819,-0.0734 0.47956,-0.0734 0.66146,0 0.1819,0.0734 0.0331,0.13346 -0.33073,0.13346 -0.3638,0 -0.51263,-0.0601 -0.33073,-0.13346 z m 79.90417,0 c 0.1819,-0.0734 0.47956,-0.0734 0.66146,0 0.1819,0.0734 0.0331,0.13346 -0.33073,0.13346 -0.3638,0 -0.51263,-0.0601 -0.33073,-0.13346 z m -79.17656,-31.31018 c 0.26339,-0.29105 0.53842,-0.52917 0.61118,-0.52917 0.0728,0 -0.0832,0.23812 -0.3466,0.52917 -0.26339,0.29104 -0.53842,0.52916 -0.61118,0.52916 -0.0728,0 0.0832,-0.23812 0.3466,-0.52916 z m 6.2177,-6.217713 c 0.34178,-0.363802 0.68094,-0.661458 0.7537,-0.661458 0.0728,0 -0.14734,0.297656 -0.48911,0.661458 -0.34178,0.363802 -0.68094,0.661458 -0.7537,0.661458 -0.0728,0 0.14734,-0.297656 0.48911,-0.661458 z"
         id="path12617" /><path
         style="fill:#333333;fill-opacity:1;stroke-width:11.5383"
         d="m 140.86797,178.82045 c -12.66181,-1.71001 -19.98788,-7.25532 -23.37651,-17.69434 -0.3779,-1.16416 -1.21533,-4.73604 -1.86095,-7.9375 -1.4025,-6.95462 -1.93547,-8.4955 -3.5051,-10.13366 l -1.16922,-1.22027 0.0731,-3.71574 0.0731,-3.71575 1.92578,-0.95442 c 2.13929,-1.06024 7.16374,-2.39358 11.43568,-3.0347 3.77747,-0.5669 14.78928,-0.79484 19.33647,-0.40025 8.96077,0.77758 17.37589,2.93127 22.37919,5.72753 0.89721,0.50143 2.98038,1.92215 4.62927,3.15714 6.39111,4.78687 9.45371,4.76181 15.96445,-0.13063 1.74625,-1.31221 4.24656,-2.91664 5.55625,-3.56539 4.35448,-2.15702 10.43176,-3.84673 17.33021,-4.81845 4.7131,-0.66389 18.64337,-0.66978 23.01448,-0.01 4.69792,0.70939 9.42812,1.94637 11.64593,3.04548 l 1.98438,0.98343 0.0731,3.71575 0.0731,3.71574 -1.16922,1.22027 c -1.56771,1.63615 -2.10966,3.19216 -3.49397,10.03169 -0.63662,3.14537 -1.4702,6.71725 -1.85238,7.9375 -3.13984,10.02489 -10.10542,15.60893 -21.93311,17.58295 -8.07228,1.34725 -15.51587,0.34772 -20.80328,-2.79347 -3.20422,-1.90359 -5.39591,-4.26789 -10.48131,-11.3067 -2.56174,-3.54577 -5.02591,-6.70949 -5.47593,-7.0305 -1.16534,-0.83126 -3.91065,-0.83126 -5.07599,0 -0.45002,0.32101 -2.91419,3.48473 -5.47593,7.0305 -5.0854,7.03881 -7.27709,9.40311 -10.48131,11.3067 -4.9995,2.97013 -11.79219,4.0262 -19.34018,3.00682 z m 10.05416,-6.58994 c 4.17894,-0.99802 8.47571,-4.02223 11.23015,-7.90418 1.53419,-2.16219 3.33713,-5.82148 4.52173,-9.17745 0.80912,-2.29219 0.97416,-3.11891 0.98419,-4.92999 0.0107,-1.92466 -0.0853,-2.37368 -0.83061,-3.88769 -0.90777,-1.84393 -1.66901,-2.56197 -4.66066,-4.39613 -7.35037,-4.50645 -17.09868,-6.81137 -25.68837,-6.07382 -3.84388,0.33005 -8.17398,1.33326 -9.96713,2.30922 -1.69313,0.92152 -3.19999,2.64995 -3.94771,4.52818 -0.84649,2.12635 -0.83631,6.87346 0.0216,10.09309 1.4466,5.42863 4.54699,11.29516 7.81706,14.79136 3.57081,3.81772 8.59646,5.45319 15.88951,5.17082 1.60073,-0.062 3.68432,-0.29751 4.6302,-0.52341 z m 64.82064,0.39253 c 5.00874,-0.514 8.48238,-2.06857 11.26158,-5.03994 3.28185,-3.5088 6.3642,-9.36577 7.84674,-14.91009 0.8277,-3.09543 0.82384,-7.8847 -0.008,-9.97436 -0.74771,-1.87823 -2.25457,-3.60666 -3.9477,-4.52818 -1.79316,-0.97596 -6.12325,-1.97917 -9.96714,-2.30922 -8.58968,-0.73755 -18.33799,1.56737 -25.68836,6.07382 -3.0025,1.84081 -3.75176,2.5499 -4.67412,4.42348 -0.76333,1.55053 -0.85337,1.97199 -0.83056,3.88769 0.0209,1.7568 0.20285,2.65084 0.99765,4.90264 2.02713,5.74315 4.33738,9.5494 7.70503,12.69442 4.39582,4.10521 9.67332,5.56289 17.30493,4.77974 z m -97.99399,-45.29745 c 0.73518,-0.76398 3.69893,-3.94891 6.58612,-7.0776 13.40586,-14.52728 23.73978,-24.91822 28.30703,-28.46324 7.08882,-5.502222 15.46026,-8.747632 24.95865,-9.675871 2.78244,-0.271917 3.30056,-0.263296 3.51915,0.05856 0.14098,0.207582 0.2119,1.274952 0.15761,2.371934 -0.21697,4.383971 -2.86259,6.800926 -8.52708,7.790084 -1.63999,0.286382 -3.05085,0.361945 -4.53229,0.242745 -2.01964,-0.162507 -2.23783,-0.127403 -3.57187,0.574691 -1.0959,0.576759 -5.1818,4.495157 -17.866,17.133577 l -16.44516,16.38581 -2.60484,0.22868 c -3.1335,0.27508 -5.52835,0.64043 -8.62131,1.31522 -1.27177,0.27746 -2.39879,0.50447 -2.5045,0.50447 -0.10572,0 0.40931,-0.62508 1.14449,-1.38906 z m 114.13586,-0.22963 c -0.80037,-0.1217 -4.59605,-0.30053 -8.43486,-0.39739 l -6.97964,-0.17611 -13.26099,-7.66567 c -7.29353,-4.21612 -14.55851,-8.30678 -16.14439,-9.09036 -3.4042,-1.68201 -4.25956,-1.76527 -7.43533,-0.72378 -1.77364,0.58167 -2.63202,0.69904 -5.29666,0.72423 -3.09283,0.0292 -3.22876,0.006 -4.95962,-0.84577 -1.03673,-0.51021 -2.06445,-1.24923 -2.46189,-1.7703 -0.87583,-1.14827 -1.70163,-3.32323 -1.70163,-4.4817 0,-0.8792 0.0388,-0.91224 1.38907,-1.18388 3.86442,-0.77742 5.72472,-0.9398 10.64948,-0.92956 11.26821,0.0234 16.76981,1.96903 33.46979,11.83621 5.20432,3.07497 23.42564,14.36551 24.05504,14.90531 0.16919,0.14511 -1.27016,0.0448 -2.88837,-0.20123 z"
         id="path12615" /></g></g></svg>
