<?xml version="1.0" encoding="UTF-8" standalone="no"?>
<!-- Created with Inkscape (http://www.inkscape.org/) -->

<svg
   width="10.598488mm"
   height="10.604706mm"
   viewBox="0 0 10.598488 10.604706"
   version="1.1"
   id="svg5"
   inkscape:version="1.2-beta (1b65182, 2022-04-05)"
   xml:space="preserve"
   sodipodi:docname="ui.svg"
   xmlns:inkscape="http://www.inkscape.org/namespaces/inkscape"
   xmlns:sodipodi="http://sodipodi.sourceforge.net/DTD/sodipodi-0.dtd"
   xmlns="http://www.w3.org/2000/svg"
   xmlns:svg="http://www.w3.org/2000/svg"><sodipodi:namedview
     id="namedview7"
     pagecolor="#2e2e2e"
     bordercolor="#666666"
     borderopacity="1.0"
     inkscape:pageshadow="2"
     inkscape:pageopacity="0"
     inkscape:pagecheckerboard="true"
     inkscape:document-units="mm"
     showgrid="false"
     borderlayer="true"
     inkscape:showpageshadow="false"
     inkscape:snap-page="true"
     inkscape:deskcolor="#2e2e2e"
     inkscape:zoom="0.5946522"
     inkscape:cx="0.84082763"
     inkscape:cy="411.16471"
     inkscape:window-width="1920"
     inkscape:window-height="994"
     inkscape:window-x="0"
     inkscape:window-y="0"
     inkscape:window-maximized="1"
     inkscape:current-layer="layer1" /><defs
     id="defs2" /><g
     inkscape:label="Capa 1"
     inkscape:groupmode="layer"
     id="layer1"
     transform="translate(-18.427224,-137.78869)"><path
       style="fill:#ffffff;stroke-width:0.999999"
       d="m 18.614812,148.3584 c -0.03782,-0.0186 -0.09373,-0.0666 -0.124258,-0.10658 l -0.05549,-0.0728 -0.0054,-2.18457 c -0.0054,-2.17732 -0.0053,-2.18486 0.03772,-2.27375 0.02545,-0.0526 0.07446,-0.10862 0.119363,-0.13655 0.07581,-0.0471 0.08055,-0.0473 0.951186,-0.0533 l 0.874993,-0.005 v 0.71127 0.71128 l 0.05482,0.10997 c 0.06205,0.1245 0.185549,0.21747 0.318815,0.23999 0.123784,0.0208 0.284459,-0.0347 0.378259,-0.13064 0.130714,-0.13386 0.138636,-0.18873 0.138636,-0.96006 v -0.68052 h 0.839418 c 0.712032,0 0.851101,0.004 0.916412,0.0321 0.109556,0.0458 0.182805,0.12358 0.210211,0.2233 0.01727,0.0628 0.02208,0.66786 0.01773,2.22973 l -0.006,2.14347 -0.04738,0.0761 c -0.02782,0.0446 -0.08397,0.0938 -0.135975,0.11908 -0.08789,0.0425 -0.105744,0.0428 -2.25142,0.0424 -1.96011,-3.9e-4 -2.169269,-0.003 -2.231588,-0.0345 z m 5.738606,-0.009 c -0.04988,-0.0247 -0.107763,-0.0759 -0.134612,-0.11906 l -0.04711,-0.0758 v -2.19524 -2.19527 l 0.04741,-0.0664 c 0.02611,-0.0366 0.07734,-0.0879 0.113906,-0.11391 0.06643,-0.0473 0.06732,-0.0473 0.941476,-0.0534 l 0.874996,-0.005 v 0.68051 c 0,0.79853 0.0072,0.84321 0.15587,0.97413 0.227426,0.20017 0.547923,0.14262 0.67984,-0.12211 l 0.0548,-0.10997 v -0.71127 -0.71127 l 0.874995,0.005 c 0.870631,0.005 0.875372,0.006 0.951188,0.0533 0.0449,0.0278 0.09393,0.084 0.119358,0.13656 0.04304,0.0889 0.04314,0.0964 0.03774,2.27373 l -0.0054,2.18458 -0.05579,0.0731 c -0.114929,0.15067 0.04529,0.14109 -2.36005,0.14108 -2.15089,-2e-5 -2.161465,-2.4e-4 -2.248562,-0.0433 z m -2.828779,-5.72309 c -0.04346,-0.0156 -0.09801,-0.0456 -0.121202,-0.0666 -0.104231,-0.0943 -0.100055,0.003 -0.100055,-2.34333 v -2.19321 l 0.04659,-0.0685 c 0.02563,-0.0377 0.0729,-0.088 0.105046,-0.11178 0.05685,-0.0422 0.08253,-0.0435 0.947478,-0.0492 l 0.88903,-0.005 v 0.72223 c 0,0.71607 3.92e-4,0.723 0.04818,0.8135 0.0265,0.0502 0.08787,0.11924 0.136398,0.15341 0.07983,0.0561 0.103608,0.0622 0.250321,0.0622 0.146717,0 0.170491,-0.005 0.250326,-0.0622 0.04854,-0.0341 0.109894,-0.10325 0.136398,-0.15341 0.04781,-0.0905 0.04819,-0.0975 0.04819,-0.8135 v -0.72223 l 0.889029,0.005 c 0.864944,0.005 0.890615,0.006 0.947479,0.0492 0.03215,0.0238 0.07941,0.0742 0.105046,0.11178 l 0.04661,0.0685 v 2.19948 2.19947 l -0.04668,0.0692 c -0.02567,0.0381 -0.07925,0.0884 -0.119078,0.11178 -0.07166,0.0421 -0.09489,0.0426 -2.226249,0.047 -1.78027,0.003 -2.167537,-4.7e-4 -2.232863,-0.0239 z"
       id="path1935" /></g></svg>
