<?xml version="1.0" encoding="UTF-8" standalone="no"?>
<!-- Created with Inkscape (http://www.inkscape.org/) -->

<svg
   width="56.539566"
   height="75.814354"
   viewBox="0 0 14.959427 20.059214"
   version="1.1"
   id="svg5"
   xml:space="preserve"
   xmlns="http://www.w3.org/2000/svg"
   xmlns:svg="http://www.w3.org/2000/svg"><defs
     id="defs2" /><g
     id="layer1"
     transform="translate(-8.9244517,-3.1995652)"><path
       style="fill:#ffffff;stroke-width:0.999998"
       d="m 10.222115,23.078181 c -0.01375,-0.09934 -0.05112,-0.37186 -0.08305,-0.605605 l -0.05806,-0.424982 0.112321,-0.08236 c 0.244816,-0.179511 0.49011,-0.474535 0.616723,-0.741748 0.120051,-0.253369 0.133072,-0.320362 0.133072,-0.684587 0,-0.365123 -0.01286,-0.430882 -0.134487,-0.687609 -0.07397,-0.156125 -0.212576,-0.368587 -0.308022,-0.472132 -0.171208,-0.185737 -0.610416,-0.455191 -0.7419586,-0.455191 -0.03719,0 -0.077255,-0.04302 -0.089039,-0.09563 -0.029698,-0.132537 -0.3201813,-2.390958 -0.3201813,-2.489294 0,-0.07572 0.023888,-0.07369 0.4624585,0.03923 1.1177614,0.287838 2.5221024,0.530804 3.8298774,0.662613 0.950773,0.09583 4.344898,0.108965 5.312299,0.02056 1.326832,-0.121248 3.149365,-0.431667 4.132967,-0.703936 0.332965,-0.09217 0.371871,-0.09557 0.371969,-0.03258 1.28e-4,0.08929 -0.292803,2.375079 -0.320829,2.503381 -0.01149,0.05262 -0.05131,0.09563 -0.0885,0.09563 -0.131543,0 -0.570751,0.269454 -0.741958,0.455192 -0.09545,0.103545 -0.234057,0.316007 -0.308023,0.472136 -0.121627,0.256727 -0.134487,0.322486 -0.134487,0.687608 0,0.364227 0.01303,0.431219 0.133071,0.684587 0.126614,0.267214 0.371907,0.562238 0.616723,0.741749 l 0.112321,0.08236 -0.05806,0.424982 c -0.03193,0.233746 -0.0693,0.506263 -0.08305,0.605605 l -0.025,0.180619 H 16.404166 10.247108 Z M 9.0287655,21.454552 c -0.1034689,-0.103471 -0.104314,-0.1109 -0.104314,-0.915649 0,-0.80475 7.885e-4,-0.812179 0.104314,-0.915645 0.2028051,-0.202808 0.6164325,-0.108922 0.9383351,0.212979 0.3003454,0.300349 0.3833494,0.617995 0.2656154,1.016474 -0.06897,0.233434 -0.4210349,0.585497 -0.6544711,0.654473 -0.2725032,0.08051 -0.4315706,0.06528 -0.5494794,-0.05261 z m 14.1751395,0.04877 c -0.20859,-0.06575 -0.564328,-0.434113 -0.628291,-0.650592 -0.117733,-0.39848 -0.03473,-0.716126 0.265616,-1.016475 0.321903,-0.3219 0.73553,-0.415787 0.938335,-0.212978 0.103469,0.103465 0.104314,0.110894 0.104314,0.915644 0,0.80475 -7.58e-4,0.812178 -0.104314,0.91565 -0.11546,0.115454 -0.311382,0.132051 -0.57566,0.04876 z M 14.72548,16.432141 c -1.431357,-0.07677 -3.846104,-0.42552 -3.846104,-0.555477 0,-0.110036 0.265103,-0.588235 0.491382,-0.886358 0.229865,-0.302854 0.475494,-0.531859 0.826068,-0.770171 0.194226,-0.13203 1.118025,-0.608469 1.179799,-0.608469 0.01857,0 0.09672,0.511573 0.173667,1.136833 0.08588,0.697815 0.163587,1.173494 0.201226,1.231778 0.11772,0.182268 0.224729,0.169257 1.437957,-0.174851 0.633019,-0.179543 1.188207,-0.325855 1.233754,-0.325133 0.04555,5.27e-4 0.591964,0.147662 1.214266,0.326546 1.193791,0.343159 1.301224,0.356286 1.419318,0.173438 0.03763,-0.05829 0.115348,-0.533963 0.201226,-1.231778 0.07695,-0.62526 0.156145,-1.136833 0.175994,-1.136833 0.01985,0 0.284809,0.126472 0.588797,0.281049 0.666512,0.338914 1.081658,0.659086 1.402564,1.08169 0.236436,0.311367 0.50356,0.789988 0.50356,0.902259 0,0.09268 -1.450307,0.339883 -2.804893,0.478082 -0.631821,0.06447 -3.649661,0.117563 -4.398581,0.07739 z m -0.407059,-1.131164 c -0.0018,-0.0059 -0.06621,-0.498297 -0.143066,-1.094333 -0.123677,-0.959144 -0.132893,-1.097231 -0.08017,-1.201369 l 0.05957,-0.117662 0.209661,0.16016 c 0.170237,0.130045 0.245684,0.234241 0.401251,0.554154 0.222172,0.456882 0.440087,0.78938 0.724679,1.105729 0.111213,0.123627 0.194982,0.230283 0.186155,0.237015 -0.0274,0.02088 -1.262936,0.366931 -1.310151,0.366931 -0.02453,0 -0.0461,-0.0048 -0.04792,-0.0106 z m 3.424443,-0.170902 c -0.327238,-0.09504 -0.602199,-0.178388 -0.611029,-0.185221 -0.0088,-0.0068 0.07494,-0.113572 0.186155,-0.237199 0.284592,-0.316349 0.502507,-0.648847 0.724678,-1.105729 0.155568,-0.319913 0.231014,-0.424109 0.401251,-0.554154 l 0.20966,-0.16016 0.05957,0.117662 c 0.05272,0.104138 0.04351,0.242225 -0.08017,1.20137 -0.07686,0.596036 -0.141237,1.088491 -0.143066,1.094333 -0.0097,0.03089 -0.210063,-0.01497 -0.747047,-0.170902 z m -1.609975,-0.736454 c -0.127804,-0.130907 -0.313041,-0.353006 -0.411633,-0.493556 l -0.179258,-0.255554 0.229217,0.0367 c 0.126068,0.02019 0.410896,0.0367 0.632951,0.0367 0.222054,0 0.506882,-0.01652 0.632951,-0.0367 l 0.229217,-0.0367 -0.179259,0.255554 c -0.192707,0.274721 -0.619165,0.731562 -0.682909,0.731562 -0.0214,0 -0.14347,-0.107103 -0.271277,-0.238006 z M 15.900204,13.01431 c -0.528032,-0.09448 -1.17905,-0.471545 -1.554163,-0.900166 -0.249416,-0.284995 -0.517602,-0.825021 -0.597854,-1.203859 -0.04235,-0.199924 -0.06268,-0.557955 -0.06318,-1.1128471 L 13.684219,8.979344 h 2.724506 2.724508 l -0.01917,0.945589 c -0.01787,0.881723 -0.02659,0.966642 -0.129106,1.257312 -0.297731,0.84416 -0.9286,1.468151 -1.76756,1.74829 -0.313841,0.104794 -0.967445,0.146362 -1.31725,0.08377 z m -3.525751,-2.74649 c -0.07761,-0.03824 -0.192357,-0.136723 -0.25499,-0.21884 -0.149097,-0.1954766 -0.162235,-0.573652 -0.02626,-0.7557802 0.16648,-0.2229815 0.298512,-0.2888337 0.614959,-0.3067147 l 0.296129,-0.016734 v 0.68477 0.6847699 l -0.244365,-9.49e-4 c -0.13853,-4.82e-4 -0.305482,-0.03108 -0.385476,-0.0705 z M 19.804036,9.6593173 V 8.979344 h 0.237942 c 0.291486,0 0.494997,0.091173 0.646299,0.2895354 0.09311,0.1220775 0.11447,0.1949301 0.11447,0.3904379 0,0.4204747 -0.290334,0.6799757 -0.760769,0.6799757 H 19.804036 Z M 13.004294,7.9593831 V 7.6193953 h 3.399872 3.39987 v 0.3399878 0.3399877 h -3.39987 -3.399872 z m 0.339988,-1.3192415 c 0,-0.3569982 0.09852,-0.8635618 0.231707,-1.1913251 0.285102,-0.7016438 0.924335,-1.3573747 1.609548,-1.6510915 L 15.384205,3.712566 V 5.3259942 6.939422 H 14.364244 13.344282 Z M 16.064178,5.0694934 V 3.1995653 h 0.339988 0.339987 V 5.0694934 6.939422 h -0.339987 -0.339988 z m 1.359949,0.2555265 V 3.7106176 l 0.238869,0.1056395 c 0.492952,0.2180061 1.004987,0.6626 1.304168,1.1323915 0.311447,0.4890501 0.443687,0.9148661 0.482967,1.555165 l 0.02672,0.4356084 h -1.026365 -1.026363 z"
       id="path2971" /></g></svg>
