<?xml version="1.0" encoding="UTF-8" standalone="no"?>
<!-- Created with Inkscape (http://www.inkscape.org/) -->

<svg
   width="10.713043mm"
   height="10.715611mm"
   viewBox="0 0 10.713043 10.715611"
   version="1.1"
   id="svg5"
   inkscape:version="1.2-beta (1b65182, 2022-04-05)"
   xml:space="preserve"
   sodipodi:docname="ui.svg"
   xmlns:inkscape="http://www.inkscape.org/namespaces/inkscape"
   xmlns:sodipodi="http://sodipodi.sourceforge.net/DTD/sodipodi-0.dtd"
   xmlns="http://www.w3.org/2000/svg"
   xmlns:svg="http://www.w3.org/2000/svg"><sodipodi:namedview
     id="namedview7"
     pagecolor="#2e2e2e"
     bordercolor="#666666"
     borderopacity="1.0"
     inkscape:pageshadow="2"
     inkscape:pageopacity="0"
     inkscape:pagecheckerboard="true"
     inkscape:document-units="mm"
     showgrid="false"
     borderlayer="true"
     inkscape:showpageshadow="false"
     inkscape:snap-page="true"
     inkscape:deskcolor="#2e2e2e"
     inkscape:zoom="0.5946522"
     inkscape:cx="0.84082763"
     inkscape:cy="411.16471"
     inkscape:window-width="1920"
     inkscape:window-height="994"
     inkscape:window-x="0"
     inkscape:window-y="0"
     inkscape:window-maximized="1"
     inkscape:current-layer="layer1" /><defs
     id="defs2" /><g
     inkscape:label="Capa 1"
     inkscape:groupmode="layer"
     id="layer1"
     transform="translate(-18.302767,-42.559512)"><path
       style="display:inline;fill:#ffffff;stroke-width:1"
       d="m 19.57162,53.247059 c -0.147935,-0.02948 -0.379065,-0.115308 -0.495482,-0.183997 l -0.07127,-0.04205 1.235461,-1.237284 c 1.0692,-1.070779 1.238435,-1.248642 1.257558,-1.321688 0.06171,-0.235734 -0.150789,-0.447436 -0.385959,-0.384501 -0.07098,0.019 -0.263256,0.20212 -1.320421,1.257612 l -1.237338,1.235379 -0.05289,-0.09087 c -0.194504,-0.334205 -0.2533,-0.819618 -0.14414,-1.189997 0.123839,-0.420184 0.122298,-0.41837 1.684861,-1.984046 l 1.38462,-1.387378 1.115188,1.115649 1.115189,1.115651 -1.387353,1.384167 c -1.06513,1.062686 -1.422538,1.406796 -1.538854,1.481596 -0.349621,0.224839 -0.771066,0.309102 -1.159171,0.231761 z m 6.951901,0.0085 c -0.93121,-0.120436 -1.674404,-0.827559 -1.851618,-1.761754 -0.05984,-0.315502 -0.02586,-0.847983 0.06918,-1.083415 0.02006,-0.04972 -0.0675,-0.141064 -1.74926,-1.824598 l -1.770389,-1.772259 -0.08134,0.0287 c -0.275748,0.09729 -0.767561,0.121176 -1.095227,0.05319 -0.799428,-0.165865 -1.427673,-0.741367 -1.651148,-1.512533 -0.103876,-0.358453 -0.119862,-0.788991 -0.04204,-1.132273 0.03834,-0.169131 0.10768,-0.253283 0.237521,-0.288244 0.16729,-0.04505 0.201452,-0.01966 0.858867,0.638144 l 0.596521,0.596887 h 0.445021 0.445021 v -0.444418 -0.444419 l -0.60527,-0.607599 c -0.650842,-0.653347 -0.666683,-0.674551 -0.62907,-0.842095 0.02193,-0.09769 0.131876,-0.203964 0.243152,-0.235035 0.04426,-0.01236 0.18629,-0.03361 0.315606,-0.04722 1.12695,-0.1186 2.143687,0.622886 2.3736,1.731018 0.06798,0.327664 0.0441,0.819478 -0.0532,1.095226 l -0.02869,0.08134 1.772255,1.77039 c 1.683535,1.681756 1.774878,1.76933 1.824598,1.749262 0.235432,-0.09503 0.767915,-0.129034 1.083414,-0.06918 0.833919,0.158191 1.488871,0.764957 1.70135,1.576175 0.06833,0.26089 0.09346,0.575107 0.06558,0.820215 -0.0447,0.393054 -0.09701,0.496826 -0.274619,0.544649 -0.167292,0.04505 -0.201452,0.01966 -0.858867,-0.638145 l -0.596531,-0.596887 h -0.445019 -0.445022 v 0.445022 0.445024 l 0.58758,0.586058 c 0.323174,0.322333 0.601092,0.6115 0.617602,0.642594 0.01651,0.0311 0.03002,0.105216 0.03002,0.164714 0,0.09728 -0.008,0.116169 -0.07927,0.187449 -0.08826,0.08826 -0.159141,0.112607 -0.42264,0.145133 -0.201907,0.02492 -0.389077,0.02455 -0.587688,-0.001 z m -1.757788,-6.456702 -0.219205,-0.219954 0.709753,-0.709982 0.70975,-0.709982 0.09988,-0.697596 c 0.124404,-0.868946 0.114637,-0.820262 0.180223,-0.89821 0.07056,-0.08385 1.900289,-1.003621 1.996547,-1.003621 0.115388,0 0.195794,0.05685 0.463289,0.327573 0.265182,0.268379 0.309841,0.332893 0.309841,0.447595 0,0.09433 -0.921302,1.925241 -1.003621,1.99451 -0.07795,0.06558 -0.02927,0.05582 -0.898209,0.180223 l -0.697597,0.09988 -0.704991,0.704763 c -0.387746,0.387619 -0.709817,0.704763 -0.715719,0.704763 -0.0058,0 -0.109376,-0.09898 -0.229934,-0.219954 z"
       id="path1873"
       inkscape:export-filename="app/img/maintenances.svg"
       inkscape:export-xdpi="192"
       inkscape:export-ydpi="192" /></g></svg>
