<?xml version="1.0" encoding="UTF-8" standalone="no"?>
<!-- Created with Inkscape (http://www.inkscape.org/) -->

<svg
   width="10.715628mm"
   height="8.31633mm"
   viewBox="0 0 10.715628 8.31633"
   version="1.1"
   id="svg5"
   inkscape:version="1.2-beta (1b65182, 2022-04-05)"
   xml:space="preserve"
   sodipodi:docname="ui.svg"
   xmlns:inkscape="http://www.inkscape.org/namespaces/inkscape"
   xmlns:sodipodi="http://sodipodi.sourceforge.net/DTD/sodipodi-0.dtd"
   xmlns="http://www.w3.org/2000/svg"
   xmlns:svg="http://www.w3.org/2000/svg"><sodipodi:namedview
     id="namedview7"
     pagecolor="#2e2e2e"
     bordercolor="#666666"
     borderopacity="1.0"
     inkscape:pageshadow="2"
     inkscape:pageopacity="0"
     inkscape:pagecheckerboard="true"
     inkscape:document-units="mm"
     showgrid="false"
     borderlayer="true"
     inkscape:showpageshadow="false"
     inkscape:snap-page="true"
     inkscape:deskcolor="#2e2e2e"
     inkscape:zoom="0.5946522"
     inkscape:cx="0.84082763"
     inkscape:cy="411.16471"
     inkscape:window-width="1920"
     inkscape:window-height="994"
     inkscape:window-x="0"
     inkscape:window-y="0"
     inkscape:window-maximized="1"
     inkscape:current-layer="layer1" /><defs
     id="defs2" /><g
     inkscape:label="Capa 1"
     inkscape:groupmode="layer"
     id="layer1"
     transform="translate(-18.302771,-76.576498)"><path
       style="fill:#ffffff;stroke-width:1"
       d="m 20.813221,84.876646 c -0.08373,-0.03144 -0.171615,-0.112532 -0.215723,-0.198989 -0.03997,-0.07834 -0.04728,-0.141047 -0.04728,-0.405629 0,-0.22293 0.0097,-0.331526 0.03374,-0.377517 0.04528,-0.08669 0.154352,-0.187298 0.236805,-0.21845 0.0416,-0.01571 0.317923,-0.02543 0.723248,-0.02543 h 0.655941 v -0.176485 -0.176483 l -0.460249,-0.01107 c -0.402472,-0.0097 -0.477513,-0.01775 -0.597775,-0.06434 -0.26481,-0.102588 -0.46741,-0.317305 -0.55459,-0.587758 -0.03446,-0.106889 -0.03783,-0.341042 -0.03185,-2.211585 l 0.0066,-2.092039 0.07007,-0.142933 c 0.08925,-0.182069 0.249982,-0.342799 0.432327,-0.432327 l 0.14315,-0.07028 2.98265,-0.0064 2.98265,-0.0064 v 2.809674 2.809674 H 26.563299 25.95362 v 0.177932 0.177934 l 0.663476,0.0073 c 0.643262,0.0071 0.666155,0.0091 0.751438,0.06205 0.05276,0.03281 0.108504,0.09713 0.139295,0.160738 0.04638,0.09581 0.05058,0.138002 0.04353,0.437395 -0.0074,0.317212 -0.01055,0.334952 -0.0722,0.415693 -0.134044,0.175542 0.133129,0.163007 -3.42993,0.160905 -1.760108,-8.3e-4 -3.216334,-0.0079 -3.236059,-0.01537 z m 4.757895,-1.405333 v -0.179317 h -1.494314 -1.494314 v 0.179317 0.179318 h 1.494314 1.494314 z m 0.956361,-1.255224 c 0.09923,-0.09923 0.04002,-0.288466 -0.101005,-0.322873 -0.02992,-0.0073 -1.105237,-0.01026 -2.389589,-0.0065 l -2.335186,0.0066 -0.06169,0.05796 c -0.07527,0.07073 -0.07979,0.163624 -0.01214,0.24963 l 0.04955,0.063 h 2.401121 c 2.369242,0 2.401756,-6.23e-4 2.44894,-0.04782 z m -0.07479,-1.030602 c 0.192707,-0.06718 0.157352,-0.330375 -0.0494,-0.367736 -0.04347,-0.0079 -1.12091,-0.01115 -2.39431,-0.0073 l -2.315274,0.0069 -0.05769,0.06708 c -0.03173,0.03689 -0.0577,0.09098 -0.0577,0.120202 0,0.06787 0.06214,0.156895 0.128081,0.183506 0.07957,0.03211 4.653898,0.0295 4.746296,-0.0027 z m 0.07691,-1.11788 c 0.06023,-0.0744 0.05919,-0.205014 -0.0021,-0.266329 -0.04718,-0.04718 -0.07969,-0.04782 -2.44894,-0.04782 h -2.401121 l -0.04955,0.063 c -0.07264,0.09235 -0.06401,0.183588 0.02442,0.257989 l 0.07396,0.06224 2.378825,-0.0064 2.378824,-0.0064 z m 0,-1.075907 c 0.06113,-0.07549 0.05835,-0.190012 -0.0063,-0.25881 l -0.05199,-0.05533 h -2.38784 -2.387822 l -0.05868,0.05868 c -0.09391,0.09391 -0.07215,0.225261 0.04891,0.295173 0.03546,0.02048 0.661792,0.02621 2.422905,0.02218 l 2.375086,-0.0054 z m 1.041911,4.284356 c -0.0088,-0.0088 -0.01594,-1.272956 -0.01594,-2.80931 v -2.793371 h 0.272824 c 0.20061,0 0.311347,0.01199 0.418363,0.0453 0.364363,0.113402 0.63145,0.399686 0.7316,0.784186 0.05397,0.207217 0.05313,3.731772 -9.56e-4,3.939373 -0.115399,0.443044 -0.465436,0.76105 -0.907797,0.824726 -0.191405,0.02755 -0.474481,0.03272 -0.498105,0.0091 z m -7.58805,-1.179765 c -0.18563,-0.09276 -0.370714,-0.28876 -0.467024,-0.49457 -0.05993,-0.128052 -0.07722,-0.200605 -0.08552,-0.358839 l -0.01041,-0.198335 H 19.12312 18.825742 l -0.195736,-0.182502 c -0.29519,-0.275232 -0.327235,-0.313147 -0.327235,-0.387183 0,-0.08687 0.0465,-0.134249 0.331337,-0.337608 l 0.236164,-0.168612 h 0.278112 0.278111 v -0.141325 c 0,-0.365237 0.230691,-0.733417 0.560824,-0.895067 0.07125,-0.03488 0.140964,-0.06342 0.154942,-0.06342 0.0177,0 0.02541,0.500714 0.02541,1.649723 0,0.907347 -0.0091,1.649722 -0.0201,1.649722 -0.01105,0 -0.0849,-0.03239 -0.164133,-0.07198 z m 1.726014,-4.966417 c 0.0094,-0.07538 0.03342,-0.177763 0.05333,-0.227527 0.04446,-0.111111 0.222728,-0.272278 0.338988,-0.306468 0.05473,-0.0161 0.335703,-0.02262 0.769556,-0.01786 l 0.683348,0.0075 0.116973,0.07236 c 0.162802,0.10071 0.25141,0.250487 0.267614,0.452362 l 0.01258,0.156686 H 22.82211 21.692357 Z"
       id="path1887" /></g></svg>
