<?xml version="1.0" encoding="UTF-8" standalone="no"?>
<!-- Created with Inkscape (http://www.inkscape.org/) -->

<svg
   width="10.604742mm"
   height="9.5466919mm"
   viewBox="0 0 10.604742 9.5466919"
   version="1.1"
   id="svg5"
   inkscape:version="1.2-beta (1b65182, 2022-04-05)"
   xml:space="preserve"
   sodipodi:docname="ui.svg"
   xmlns:inkscape="http://www.inkscape.org/namespaces/inkscape"
   xmlns:sodipodi="http://sodipodi.sourceforge.net/DTD/sodipodi-0.dtd"
   xmlns="http://www.w3.org/2000/svg"
   xmlns:svg="http://www.w3.org/2000/svg"><sodipodi:namedview
     id="namedview7"
     pagecolor="#2e2e2e"
     bordercolor="#666666"
     borderopacity="1.0"
     inkscape:pageshadow="2"
     inkscape:pageopacity="0"
     inkscape:pagecheckerboard="true"
     inkscape:document-units="mm"
     showgrid="false"
     borderlayer="true"
     inkscape:showpageshadow="false"
     inkscape:snap-page="true"
     inkscape:deskcolor="#2e2e2e"
     inkscape:zoom="0.5946522"
     inkscape:cx="0.84082763"
     inkscape:cy="411.16471"
     inkscape:window-width="1920"
     inkscape:window-height="994"
     inkscape:window-x="0"
     inkscape:window-y="0"
     inkscape:window-maximized="1"
     inkscape:current-layer="layer1" /><defs
     id="defs2" /><g
     inkscape:label="Capa 1"
     inkscape:groupmode="layer"
     id="layer1"
     transform="translate(-18.435061,-170.59613)"><path
       style="fill:#ffffff;stroke-width:1"
       d="m 22.263186,180.112 c -0.257184,-0.0719 -0.470212,-0.24026 -0.585608,-0.46267 -0.09787,-0.18864 -0.127934,-0.32763 -0.114205,-0.52798 0.01174,-0.17206 0.08653,-0.36973 0.192176,-0.50823 l 0.0504,-0.066 -0.07308,-0.12119 c -0.107987,-0.17907 -0.13986,-0.31011 -0.130037,-0.53469 0.0072,-0.16538 0.01781,-0.20948 0.08259,-0.34455 0.128571,-0.26802 0.380214,-0.46596 0.658393,-0.51788 0.07127,-0.0133 1.093122,-0.0209 2.820451,-0.0209 2.666323,0 2.710029,8.3e-4 2.794415,0.0415 0.0981,0.0475 0.17636,0.16651 0.17636,0.26821 0,0.10434 -0.0729,0.22377 -0.165442,0.27098 -0.08083,0.0413 -0.116817,0.0418 -2.795601,0.0418 -2.542164,2e-5 -2.718275,0.002 -2.785916,0.0363 -0.222292,0.11169 -0.222718,0.42973 -7.03e-4,0.54769 0.06923,0.0368 0.180328,0.0384 2.614328,0.0387 2.056285,2.3e-4 2.561855,0.005 2.645776,0.0279 0.506026,0.13537 0.813324,0.6469 0.684879,1.14005 -0.04729,0.18157 -0.128956,0.32401 -0.257922,0.44987 -0.43328,0.42289 -1.122563,0.34219 -1.455067,-0.17035 -0.108903,-0.16787 -0.152359,-0.34365 -0.13827,-0.55933 0.0062,-0.095 0.01783,-0.19366 0.02585,-0.21934 l 0.01457,-0.0467 h -1.560982 -1.560987 l 0.01457,0.0467 c 0.0081,0.0256 0.01965,0.12438 0.02585,0.21934 0.02402,0.3678 -0.150451,0.69254 -0.473899,0.88205 -0.18547,0.10871 -0.492771,0.14744 -0.702853,0.0887 z m -1.008088,-6.26139 -0.705616,-2.62123 -0.957163,-0.0109 c -0.925937,-0.01 -0.959029,-0.012 -1.014431,-0.0531 -0.104832,-0.0783 -0.142827,-0.14875 -0.142827,-0.26479 0,-0.0802 0.01264,-0.12514 0.04977,-0.17719 0.09189,-0.12884 0.07673,-0.12733 1.282666,-0.12726 1.056198,8e-5 1.097562,0.001 1.162779,0.0414 0.03719,0.0226 0.08494,0.0697 0.106099,0.10456 0.02116,0.0347 0.09637,0.26597 0.167135,0.51371 0.07077,0.24774 0.147633,0.51346 0.170834,0.59049 l 0.04218,0.14004 h 3.681528 c 3.062421,0 3.69292,0.004 3.749264,0.0283 0.08852,0.037 0.174821,0.14132 0.191805,0.23185 0.0107,0.0566 -0.101994,0.50988 -0.523077,2.10514 l -0.536619,2.03296 -2.821814,8.2e-4 c -2.90777,8.3e-4 -2.816361,-0.001 -3.144227,0.074 l -0.05268,0.0121 z"
       id="path1949"
       inkscape:export-filename="app/img/pruchases.svg"
       inkscape:export-xdpi="192"
       inkscape:export-ydpi="192" /></g></svg>
