<?xml version="1.0" encoding="UTF-8" standalone="no"?>
<!-- Created with Inkscape (http://www.inkscape.org/) -->

<svg
   width="24.391205"
   height="24.391321"
   viewBox="0 0 6.4535064 6.4535371"
   version="1.1"
   id="svg5"
   inkscape:version="1.2-beta (1b65182, 2022-04-05)"
   xml:space="preserve"
   sodipodi:docname="UI.svg"
   inkscape:export-filename="user.svg"
   inkscape:export-xdpi="192"
   inkscape:export-ydpi="192"
   xmlns:inkscape="http://www.inkscape.org/namespaces/inkscape"
   xmlns:sodipodi="http://sodipodi.sourceforge.net/DTD/sodipodi-0.dtd"
   xmlns="http://www.w3.org/2000/svg"
   xmlns:svg="http://www.w3.org/2000/svg"><sodipodi:namedview
     id="namedview7"
     pagecolor="#2e2e2e"
     bordercolor="#666666"
     borderopacity="1.0"
     inkscape:pageshadow="2"
     inkscape:pageopacity="0"
     inkscape:pagecheckerboard="true"
     inkscape:document-units="px"
     showgrid="false"
     borderlayer="true"
     inkscape:showpageshadow="false"
     inkscape:snap-page="true"
     inkscape:deskcolor="#2e2e2e"
     inkscape:zoom="0.84096521"
     inkscape:cx="738.43721"
     inkscape:cy="445.32163"
     inkscape:window-width="1920"
     inkscape:window-height="994"
     inkscape:window-x="0"
     inkscape:window-y="0"
     inkscape:window-maximized="1"
     inkscape:current-layer="layer1"
     showguides="false"><sodipodi:guide
       position="294.37977,82.926898"
       orientation="0,1"
       id="guide5941" /><sodipodi:guide
       position="254.40408,69.635558"
       orientation="0,1"
       id="guide5943"
       inkscape:label=""
       inkscape:locked="false"
       inkscape:color="rgb(0,134,229)" /><sodipodi:guide
       position="241.17491,116.12563"
       orientation="-1,0"
       id="guide5947"
       inkscape:label=""
       inkscape:locked="false"
       inkscape:color="rgb(0,134,229)" /><sodipodi:guide
       position="236.06005,19.635557"
       orientation="0,1"
       id="guide6029" /><sodipodi:guide
       position="254.40408,6.4063874"
       orientation="0,1"
       id="guide6031"
       inkscape:label=""
       inkscape:locked="false"
       inkscape:color="rgb(0,134,229)" /><sodipodi:guide
       position="-221.31677,-176.42694"
       orientation="1,0"
       id="guide6117" /><sodipodi:guide
       position="-208.0876,-201.02117"
       orientation="-1,0"
       id="guide6131"
       inkscape:label=""
       inkscape:locked="false"
       inkscape:color="rgb(0,134,229)" /><sodipodi:guide
       position="161.06579,44.635558"
       orientation="1,0"
       id="guide6133" /><sodipodi:guide
       position="147.83662,44.635558"
       orientation="-1,0"
       id="guide6135"
       inkscape:label=""
       inkscape:locked="false"
       inkscape:color="rgb(0,134,229)" /><sodipodi:guide
       position="24.785441,-37.463253"
       orientation="1,0"
       id="guide6203" /><sodipodi:guide
       position="38.182691,-47.035983"
       orientation="-1,0"
       id="guide6205" /><sodipodi:guide
       position="-253.59593,-163.19778"
       orientation="0,1"
       id="guide6209"
       inkscape:label=""
       inkscape:locked="false"
       inkscape:color="rgb(0,134,229)" /><sodipodi:guide
       position="-200.1501,53.257378"
       orientation="-1,0"
       id="guide6832"
       inkscape:label=""
       inkscape:locked="false"
       inkscape:color="rgb(0,134,229)" /></sodipodi:namedview><defs
     id="defs2" /><g
     inkscape:label="Página 1"
     inkscape:groupmode="layer"
     id="layer1"
     transform="translate(-253.59593,-102.86952)"><path
       style="fill:#f11717;fill-opacity:1;stroke-width:0.999997"
       d="m 254.69967,109.30366 c -0.0208,-0.009 -0.27411,-0.25442 -0.56294,-0.54444 -0.46488,-0.46681 -0.52616,-0.53288 -0.53396,-0.57579 -0.021,-0.11528 -0.0582,-0.073 0.98753,-1.12013 l 0.96576,-0.96702 -0.96576,-0.96701 c -1.04564,-1.04699 -1.00842,-1.00479 -0.98759,-1.12015 0.008,-0.043 0.0691,-0.1088 0.54656,-0.58627 0.47747,-0.47746 0.54324,-0.53879 0.58627,-0.54655 0.11536,-0.0208 0.0732,-0.0581 1.12014,0.98759 l 0.96701,0.96576 0.96701,-0.96576 c 1.04699,-1.04564 1.00479,-1.00843 1.12015,-0.98759 0.043,0.008 0.10879,0.0691 0.58627,0.54655 0.47746,0.47747 0.53878,0.54325 0.54655,0.58627 0.0208,0.11536 0.0581,0.0732 -0.98759,1.12015 l -0.96575,0.96701 0.96575,0.96702 c 1.04564,1.04698 1.00842,1.00478 0.98759,1.12013 -0.008,0.043 -0.0691,0.1088 -0.54655,0.58628 -0.47748,0.47746 -0.54325,0.53878 -0.58627,0.54655 -0.11536,0.0209 -0.0731,0.0581 -1.12019,-0.98762 l -0.96704,-0.96581 -0.96068,0.96007 c -0.67219,0.67177 -0.97474,0.96589 -1.00752,0.97946 -0.057,0.0236 -0.10461,0.024 -0.15475,0.001 z"
       id="path10763" /></g></svg>
