<?xml version="1.0" encoding="UTF-8" standalone="no"?>
<!-- Created with Inkscape (http://www.inkscape.org/) -->

<svg
   width="26.583164"
   height="33.207748"
   viewBox="0 0 7.0334623 8.7862168"
   version="1.1"
   id="svg5"
   inkscape:version="1.2-beta (1b65182, 2022-04-05)"
   xml:space="preserve"
   sodipodi:docname="UI.svg"
   inkscape:export-filename="user.svg"
   inkscape:export-xdpi="192"
   inkscape:export-ydpi="192"
   xmlns:inkscape="http://www.inkscape.org/namespaces/inkscape"
   xmlns:sodipodi="http://sodipodi.sourceforge.net/DTD/sodipodi-0.dtd"
   xmlns="http://www.w3.org/2000/svg"
   xmlns:svg="http://www.w3.org/2000/svg"><sodipodi:namedview
     id="namedview7"
     pagecolor="#2e2e2e"
     bordercolor="#666666"
     borderopacity="1.0"
     inkscape:pageshadow="2"
     inkscape:pageopacity="0"
     inkscape:pagecheckerboard="true"
     inkscape:document-units="px"
     showgrid="false"
     borderlayer="true"
     inkscape:showpageshadow="false"
     inkscape:snap-page="true"
     inkscape:deskcolor="#2e2e2e"
     inkscape:zoom="0.84096521"
     inkscape:cx="738.43721"
     inkscape:cy="445.32163"
     inkscape:window-width="1920"
     inkscape:window-height="994"
     inkscape:window-x="0"
     inkscape:window-y="0"
     inkscape:window-maximized="1"
     inkscape:current-layer="layer1"
     showguides="false"><sodipodi:guide
       position="305.09643,84.093233"
       orientation="0,1"
       id="guide5941" /><sodipodi:guide
       position="265.12074,70.801893"
       orientation="0,1"
       id="guide5943"
       inkscape:label=""
       inkscape:locked="false"
       inkscape:color="rgb(0,134,229)" /><sodipodi:guide
       position="251.89157,117.29196"
       orientation="-1,0"
       id="guide5947"
       inkscape:label=""
       inkscape:locked="false"
       inkscape:color="rgb(0,134,229)" /><sodipodi:guide
       position="246.77671,20.801893"
       orientation="0,1"
       id="guide6029" /><sodipodi:guide
       position="265.12074,7.5727234"
       orientation="0,1"
       id="guide6031"
       inkscape:label=""
       inkscape:locked="false"
       inkscape:color="rgb(0,134,229)" /><sodipodi:guide
       position="-210.60011,-175.26061"
       orientation="1,0"
       id="guide6117" /><sodipodi:guide
       position="-197.37094,-199.85483"
       orientation="-1,0"
       id="guide6131"
       inkscape:label=""
       inkscape:locked="false"
       inkscape:color="rgb(0,134,229)" /><sodipodi:guide
       position="171.78245,45.801893"
       orientation="1,0"
       id="guide6133" /><sodipodi:guide
       position="158.55328,45.801893"
       orientation="-1,0"
       id="guide6135"
       inkscape:label=""
       inkscape:locked="false"
       inkscape:color="rgb(0,134,229)" /><sodipodi:guide
       position="35.5021,-36.296917"
       orientation="1,0"
       id="guide6203" /><sodipodi:guide
       position="48.89935,-45.869647"
       orientation="-1,0"
       id="guide6205" /><sodipodi:guide
       position="-242.87927,-162.03144"
       orientation="0,1"
       id="guide6209"
       inkscape:label=""
       inkscape:locked="false"
       inkscape:color="rgb(0,134,229)" /><sodipodi:guide
       position="-189.43344,54.423713"
       orientation="-1,0"
       id="guide6832"
       inkscape:label=""
       inkscape:locked="false"
       inkscape:color="rgb(0,134,229)" /></sodipodi:namedview><defs
     id="defs2" /><g
     inkscape:label="Página 1"
     inkscape:groupmode="layer"
     id="layer1"
     transform="translate(-242.87927,-101.70318)"><g
       id="g12298"
       transform="matrix(0.43281091,0,0,0.43281091,160.88415,33.923879)"
       style="fill:#17acf1;fill-opacity:1;stroke-width:2.31047"><path
         style="fill:#17acf1;fill-opacity:1;stroke-width:2.31047"
         d="m 197.5047,174.85626 c 0.0382,-0.01 0.10062,-0.01 0.13879,0 0.0382,0.01 0.007,0.0181 -0.0694,0.0181 -0.0763,0 -0.10756,-0.008 -0.0694,-0.0181 z m -0.43621,-6.06953 c 0.27808,-0.007 0.73312,-0.007 1.0112,0 0.27809,0.007 0.0506,0.0124 -0.5056,0.0124 -0.55616,0 -0.78368,-0.006 -0.5056,-0.0124 z m 0,-4.08448 c 0.27808,-0.007 0.73312,-0.007 1.0112,0 0.27809,0.007 0.0506,0.0124 -0.5056,0.0124 -0.55616,0 -0.78368,-0.006 -0.5056,-0.0124 z m -6.63738,-1.66563 c -0.0493,-0.0629 -0.0479,-0.0643 0.015,-0.015 0.0382,0.0299 0.0694,0.0612 0.0694,0.0694 0,0.0326 -0.0326,0.0116 -0.0844,-0.0544 z m 1.39259,-1.42758 -0.73322,-0.74353 0.74353,0.73321 c 0.69082,0.68124 0.76145,0.75385 0.73322,0.75385 -0.006,0 -0.34026,-0.33459 -0.74353,-0.74353 z m 3.22238,-2.97402 c 0.27808,-0.007 0.73312,-0.007 1.0112,0 0.27808,0.007 0.0506,0.0124 -0.5056,0.0124 -0.55616,0 -0.78368,-0.006 -0.5056,-0.0124 z m 4.04482,0 c 0.27808,-0.007 0.73312,-0.007 1.01121,0 0.27808,0.007 0.0506,0.0124 -0.50561,0.0124 -0.55616,0 -0.78368,-0.006 -0.5056,-0.0124 z"
         id="path12314" /><path
         style="fill:#17acf1;fill-opacity:1;stroke-width:2.31047"
         d="m 197.36838,174.8565 c 0.0286,-0.0115 0.0628,-0.01 0.076,0.003 0.0132,0.0132 -0.0102,0.0225 -0.0521,0.0208 -0.0462,-0.002 -0.0556,-0.0113 -0.024,-0.024 z m 0.3569,0 c 0.0286,-0.0115 0.0628,-0.01 0.076,0.003 0.0132,0.0132 -0.0102,0.0225 -0.052,0.0208 -0.0462,-0.002 -0.0556,-0.0113 -0.024,-0.024 z"
         id="path12312" /><path
         style="fill:#17acf1;fill-opacity:1;stroke-width:2.31047"
         d="m 193.24868,173.06937 -0.0961,-0.10905 0.10905,0.0961 c 0.10192,0.0899 0.12723,0.12197 0.0961,0.12197 -0.007,0 -0.0562,-0.0491 -0.10905,-0.10905 z m 8.58834,0.0297 c 0.0395,-0.0436 0.0807,-0.0793 0.0916,-0.0793 0.0109,0 -0.0125,0.0357 -0.052,0.0793 -0.0395,0.0436 -0.0807,0.0793 -0.0916,0.0793 -0.0109,0 0.0125,-0.0357 0.052,-0.0793 z m -10.36356,-4.32241 c 0,-0.0545 0.009,-0.0768 0.02,-0.0496 0.011,0.0273 0.011,0.0719 0,0.0991 -0.011,0.0273 -0.02,0.005 -0.02,-0.0496 z m 12.171,0.0165 c 0.002,-0.0462 0.0113,-0.0556 0.0239,-0.024 0.0115,0.0286 0.0101,0.0628 -0.003,0.076 -0.0132,0.0132 -0.0225,-0.0102 -0.0208,-0.052 z m -13.9668,-6.4704 c -0.0493,-0.0629 -0.0479,-0.0643 0.015,-0.015 0.0382,0.0299 0.0694,0.0612 0.0694,0.0694 0,0.0326 -0.0326,0.0116 -0.0844,-0.0544 z"
         id="path12310" /><path
         style="fill:#17acf1;fill-opacity:1;stroke-width:2.31047"
         d="m 191.47346,168.93532 c 0,-0.0545 0.009,-0.0768 0.02,-0.0496 0.011,0.0273 0.011,0.0719 0,0.0991 -0.011,0.0273 -0.02,0.005 -0.02,-0.0496 z m 12.171,-0.0231 c 0.002,-0.0462 0.0113,-0.0556 0.0239,-0.024 0.0115,0.0286 0.0101,0.0628 -0.003,0.076 -0.0132,0.0132 -0.0225,-0.0102 -0.0208,-0.052 z m 0.003,-0.25445 c 0,-0.0545 0.009,-0.0768 0.02,-0.0496 0.011,0.0273 0.011,0.0719 0,0.0991 -0.011,0.0273 -0.02,0.005 -0.02,-0.0496 z m -12.17726,-0.0231 c 0.002,-0.0462 0.0113,-0.0556 0.024,-0.024 0.0115,0.0286 0.0101,0.0628 -0.003,0.076 -0.0132,0.0132 -0.0225,-0.0102 -0.0208,-0.052 z"
         id="path12308" /><path
         style="fill:#17acf1;fill-opacity:1;stroke-width:2.31047"
         d="m 189.45105,169.1336 c 0,-0.0545 0.009,-0.0768 0.02,-0.0496 0.011,0.0273 0.011,0.0719 0,0.0991 -0.011,0.0273 -0.02,0.005 -0.02,-0.0496 z m 16.21582,-0.0231 c 0.002,-0.0462 0.0113,-0.0556 0.024,-0.024 0.0114,0.0286 0.01,0.0628 -0.003,0.076 -0.0132,0.0132 -0.0225,-0.0102 -0.0208,-0.052 z m -2.02241,-0.0793 c 0.002,-0.0462 0.0113,-0.0556 0.0239,-0.024 0.0115,0.0286 0.0101,0.0628 -0.003,0.076 -0.0132,0.0132 -0.0225,-0.0102 -0.0208,-0.052 z m -7.08297,-2.27687 c 0,-1.12323 0.005,-1.58273 0.0113,-1.02112 0.006,0.56162 0.006,1.48063 0,2.04224 -0.006,0.56162 -0.0113,0.10211 -0.0113,-1.02112 z m 2.02241,0 c 0,-1.12323 0.005,-1.58273 0.0113,-1.02112 0.006,0.56162 0.006,1.48063 0,2.04224 -0.006,0.56162 -0.0113,0.10211 -0.0113,-1.02112 z m -7.11357,1.76135 c 0.002,-0.0462 0.0113,-0.0556 0.024,-0.024 0.0115,0.0286 0.0101,0.0628 -0.003,0.076 -0.0132,0.0132 -0.0225,-0.0102 -0.0208,-0.0521 z m 12.17413,0 c 0.002,-0.0462 0.0113,-0.0556 0.0239,-0.024 0.0115,0.0286 0.0101,0.0628 -0.003,0.076 -0.0132,0.0132 -0.0225,-0.0102 -0.0208,-0.0521 z m 2.02241,-0.0793 c 0.002,-0.0462 0.0113,-0.0556 0.024,-0.024 0.0114,0.0286 0.01,0.0628 -0.003,0.076 -0.0132,0.0132 -0.0225,-0.0103 -0.0208,-0.0521 z m -9.10645,-8.72082 c -3e-5,-0.58888 0.005,-0.83531 0.0123,-0.54763 0.007,0.28768 0.007,0.76949 4e-5,1.07069 -0.007,0.30119 -0.0123,0.0658 -0.0123,-0.52306 z m 2.02241,0 c -2e-5,-0.58888 0.005,-0.83531 0.0123,-0.54763 0.007,0.28768 0.007,0.76949 4e-5,1.07069 -0.007,0.30119 -0.0123,0.0658 -0.0123,-0.52306 z"
         id="path12306" /><path
         style="fill:#17acf1;fill-opacity:1;stroke-width:2.31047"
         d="m 192.05697,174.73489 c -0.0493,-0.0629 -0.0479,-0.0643 0.015,-0.015 0.0382,0.0299 0.0694,0.0612 0.0694,0.0694 0,0.0326 -0.0326,0.0116 -0.0844,-0.0544 z m -2.60905,-5.74339 c 0.002,-0.0462 0.0113,-0.0556 0.024,-0.024 0.0115,0.0286 0.0101,0.0628 -0.003,0.076 -0.0132,0.0132 -0.0225,-0.0103 -0.0208,-0.0521 z m 16.21895,0 c 0.002,-0.0462 0.0113,-0.0556 0.024,-0.024 0.0114,0.0286 0.01,0.0628 -0.003,0.076 -0.0132,0.0132 -0.0225,-0.0103 -0.0208,-0.0521 z m -16.21582,-0.45273 c 0,-0.0545 0.009,-0.0768 0.02,-0.0496 0.011,0.0273 0.011,0.0719 0,0.0991 -0.011,0.0273 -0.02,0.005 -0.02,-0.0496 z m 16.21582,0.0165 c 0.002,-0.0462 0.0113,-0.0556 0.024,-0.024 0.0114,0.0286 0.01,0.0628 -0.003,0.076 -0.0132,0.0132 -0.0225,-0.0102 -0.0208,-0.052 z m -8.21918,-5.87292 c 0.0286,-0.0115 0.0628,-0.0101 0.076,0.003 0.0132,0.0132 -0.0102,0.0225 -0.052,0.0208 -0.0462,-0.002 -0.0556,-0.0113 -0.024,-0.024 z m 0.19828,0 c 0.0286,-0.0115 0.0628,-0.0101 0.076,0.003 0.0132,0.0132 -0.0102,0.0225 -0.0521,0.0208 -0.0462,-0.002 -0.0556,-0.0113 -0.0239,-0.024 z"
         id="path12304" /><path
         style="fill:#17acf1;fill-opacity:1;stroke-width:2.31047"
         d="m 197.1701,176.87891 c 0.0286,-0.0114 0.0628,-0.01 0.076,0.003 0.0132,0.0132 -0.0102,0.0226 -0.052,0.0208 -0.0462,-0.002 -0.0556,-0.0113 -0.024,-0.024 z m 0.75345,0 c 0.0286,-0.0114 0.0628,-0.01 0.076,0.003 0.0132,0.0132 -0.0103,0.0226 -0.0521,0.0208 -0.0462,-0.002 -0.0556,-0.0113 -0.024,-0.024 z m 5.47984,-2.48615 c 0,-0.008 0.0312,-0.0395 0.0694,-0.0694 0.0629,-0.0493 0.0643,-0.0479 0.015,0.015 -0.0518,0.0661 -0.0844,0.0871 -0.0844,0.0544 z m -13.9478,-5.61606 c 0,-0.0981 0.008,-0.13829 0.0172,-0.0892 0.009,0.0491 0.009,0.12937 0,0.17845 -0.009,0.0491 -0.0172,0.009 -0.0172,-0.0892 z m 16.21895,0 c 0,-0.0981 0.008,-0.13829 0.0172,-0.0892 0.009,0.0491 0.009,0.12937 0,0.17845 -0.009,0.0491 -0.0172,0.009 -0.0172,-0.0892 z m -12.42286,-4.30258 c 0.0512,-0.0545 0.10206,-0.0991 0.11297,-0.0991 0.0109,0 -0.0221,0.0446 -0.0733,0.0991 -0.0512,0.0545 -0.10206,0.0991 -0.11296,0.0991 -0.0109,0 0.0221,-0.0446 0.0733,-0.0991 z m 8.60216,-0.01 -0.0961,-0.10905 0.10905,0.0961 c 0.10192,0.0899 0.12724,0.12197 0.0961,0.12197 -0.007,0 -0.0562,-0.0491 -0.10905,-0.10905 z m -4.52511,-1.78183 c 0.0286,-0.0115 0.0628,-0.0101 0.076,0.003 0.0132,0.0132 -0.0102,0.0225 -0.0521,0.0208 -0.0462,-0.002 -0.0556,-0.0113 -0.0239,-0.024 z m 0.4362,0 c 0.0286,-0.0115 0.0628,-0.0101 0.076,0.003 0.0132,0.0132 -0.0102,0.0225 -0.052,0.0208 -0.0462,-0.002 -0.0556,-0.0113 -0.024,-0.024 z m -7.40807,-1.10308 c 0.38121,-0.38168 0.70204,-0.69397 0.71294,-0.69397 0.0109,0 -0.29207,0.31229 -0.67329,0.69397 -0.38121,0.38168 -0.70203,0.69396 -0.71294,0.69396 -0.0109,0 0.29208,-0.31228 0.67329,-0.69396 z"
         id="path12302" /><path
         style="fill:#17acf1;fill-opacity:1;stroke-width:2.31047"
         d="m 196.86717,176.86131 c -2.7314,-0.22451 -5.25406,-1.93559 -6.52038,-4.42268 -0.59175,-1.16223 -0.86252,-2.31584 -0.86216,-3.6732 4.8e-4,-1.80407 0.53214,-3.45263 1.57154,-4.87301 l 0.13548,-0.18514 -0.75553,-0.70563 -0.75553,-0.70562 0.70455,-0.70537 0.70455,-0.70537 0.75879,0.75804 0.75879,0.75804 0.25281,-0.19866 c 0.30271,-0.23787 0.78861,-0.54308 1.16682,-0.73291 0.60043,-0.30137 1.52365,-0.58458 2.09978,-0.64413 0.13086,-0.0135 0.287,-0.0338 0.34698,-0.0451 l 0.10905,-0.0205 v -1.06754 -1.06754 h -1.03103 -1.03103 v -1.0112 -1.01121 h 3.05344 3.05345 v 1.01121 1.0112 h -1.03104 -1.03103 v 1.06889 1.06889 l 0.14871,0.0235 c 0.0818,0.0129 0.26469,0.042 0.40646,0.0647 0.42344,0.0678 1.13546,0.26608 1.56242,0.43507 2.68178,1.06146 4.5732,3.55002 4.93899,6.49825 0.0617,0.49758 0.0513,1.59458 -0.0199,2.10564 -0.37631,2.69804 -2.06884,5.00787 -4.54355,6.20065 -0.92523,0.44595 -1.83347,0.69137 -2.86566,0.77433 -0.56858,0.0457 -0.73137,0.0453 -1.32573,-0.004 z m 1.88563,-2.09149 c 2.09348,-0.44582 3.75734,-1.85306 4.51715,-3.82047 1.12034,-2.90093 -0.17449,-6.21023 -2.97948,-7.6149 -3.15395,-1.57943 -6.94705,-0.16354 -8.34669,3.11564 -1.22435,2.86849 0.006,6.24927 2.8148,7.73379 0.64316,0.33994 1.27003,0.53222 2.20086,0.67508 0.28684,0.044 1.43636,-0.0131 1.79336,-0.0891 z m -2.17009,-8.01553 v -2.02241 h 0.99138 0.99138 v 2.02241 2.02241 h -0.99138 -0.99138 z"
         id="path12300" /></g></g></svg>
