<?xml version="1.0" encoding="UTF-8" standalone="no"?>
<!-- Created with Inkscape (http://www.inkscape.org/) -->

<svg
   width="29.398722"
   height="32.83601"
   viewBox="0 0 7.7784119 8.687861"
   version="1.1"
   id="svg5"
   inkscape:version="1.2-beta (1b65182, 2022-04-05)"
   xml:space="preserve"
   sodipodi:docname="UI.svg"
   inkscape:export-filename="user.svg"
   inkscape:export-xdpi="192"
   inkscape:export-ydpi="192"
   xmlns:inkscape="http://www.inkscape.org/namespaces/inkscape"
   xmlns:sodipodi="http://sodipodi.sourceforge.net/DTD/sodipodi-0.dtd"
   xmlns="http://www.w3.org/2000/svg"
   xmlns:svg="http://www.w3.org/2000/svg"><sodipodi:namedview
     id="namedview7"
     pagecolor="#2e2e2e"
     bordercolor="#666666"
     borderopacity="1.0"
     inkscape:pageshadow="2"
     inkscape:pageopacity="0"
     inkscape:pagecheckerboard="true"
     inkscape:document-units="px"
     showgrid="false"
     borderlayer="true"
     inkscape:showpageshadow="false"
     inkscape:snap-page="true"
     inkscape:deskcolor="#2e2e2e"
     inkscape:zoom="1.1893044"
     inkscape:cx="1500.0365"
     inkscape:cy="281.25684"
     inkscape:window-width="1920"
     inkscape:window-height="994"
     inkscape:window-x="0"
     inkscape:window-y="0"
     inkscape:window-maximized="1"
     inkscape:current-layer="layer1"
     showguides="false"><sodipodi:guide
       position="79.905667,-9.4462463"
       orientation="0,1"
       id="guide5941" /><sodipodi:guide
       position="39.929977,-22.737586"
       orientation="0,1"
       id="guide5943"
       inkscape:label=""
       inkscape:locked="false"
       inkscape:color="rgb(0,134,229)" /><sodipodi:guide
       position="26.700807,23.752484"
       orientation="-1,0"
       id="guide5947"
       inkscape:label=""
       inkscape:locked="false"
       inkscape:color="rgb(0,134,229)" /><sodipodi:guide
       position="21.585947,-72.737586"
       orientation="0,1"
       id="guide6029" /><sodipodi:guide
       position="39.929977,-85.966756"
       orientation="0,1"
       id="guide6031"
       inkscape:label=""
       inkscape:locked="false"
       inkscape:color="rgb(0,134,229)" /><sodipodi:guide
       position="-435.79087,-268.80009"
       orientation="1,0"
       id="guide6117" /><sodipodi:guide
       position="-422.5617,-293.39431"
       orientation="-1,0"
       id="guide6131"
       inkscape:label=""
       inkscape:locked="false"
       inkscape:color="rgb(0,134,229)" /><sodipodi:guide
       position="-53.408313,-47.737586"
       orientation="1,0"
       id="guide6133" /><sodipodi:guide
       position="-66.637483,-47.737586"
       orientation="-1,0"
       id="guide6135"
       inkscape:label=""
       inkscape:locked="false"
       inkscape:color="rgb(0,134,229)" /><sodipodi:guide
       position="-189.68866,-129.8364"
       orientation="1,0"
       id="guide6203" /><sodipodi:guide
       position="-176.29141,-139.40913"
       orientation="-1,0"
       id="guide6205" /><sodipodi:guide
       position="-468.07003,-255.57092"
       orientation="0,1"
       id="guide6209"
       inkscape:label=""
       inkscape:locked="false"
       inkscape:color="rgb(0,134,229)" /><sodipodi:guide
       position="-414.6242,-39.115766"
       orientation="-1,0"
       id="guide6832"
       inkscape:label=""
       inkscape:locked="false"
       inkscape:color="rgb(0,134,229)" /></sodipodi:namedview><defs
     id="defs2" /><g
     inkscape:label="Página 1"
     inkscape:groupmode="layer"
     id="layer1"
     transform="translate(-468.07003,-8.2620555)"><path
       style="fill:#ffffff;fill-opacity:1;stroke-width:1"
       d="m 471.67736,16.946107 c -0.84887,-0.06461 -1.59527,-0.319437 -2.2512,-0.768565 -0.49434,-0.338486 -0.97453,-0.836534 -1.28035,-1.327959 -0.0968,-0.155538 -0.0989,-0.198791 -0.0175,-0.361633 0.15185,-0.303891 0.31266,-0.525228 0.55891,-0.769288 0.39078,-0.387305 0.9215,-0.661953 1.45562,-0.75329 0.20646,-0.03531 0.27074,-0.02716 0.39254,0.04973 0.2435,0.153714 0.3213,0.197318 0.4586,0.257015 0.61319,0.266616 1.31496,0.266558 1.92921,-1.29e-4 0.13551,-0.05884 0.20553,-0.09822 0.45802,-0.257579 0.11289,-0.07125 0.21771,-0.08201 0.42598,-0.04373 0.74457,0.136832 1.43084,0.612942 1.8621,1.291844 0.0811,0.12769 0.17916,0.341605 0.17916,0.390859 0,0.08791 -0.29681,0.51255 -0.56776,0.81227 -0.73538,0.813458 -1.66835,1.304412 -2.75346,1.448935 -0.18725,0.02494 -0.69104,0.04365 -0.84985,0.03156 z m 0.0425,-4.188159 c -0.91387,-0.08908 -1.71693,-0.786622 -1.94622,-1.690494 -0.30594,-1.2060799 0.42723,-2.4284169 1.64382,-2.7405509 0.4187,-0.107424 0.88987,-0.08071 1.32522,0.07514 0.58848,0.210669 1.11914,0.741154 1.32967,1.329226 0.26277,0.7339859 0.14626,1.5335439 -0.31133,2.1363769 -0.38506,0.507273 -0.95228,0.826501 -1.58372,0.891299 -0.19115,0.01962 -0.24722,0.01949 -0.45744,-0.001 z"
       id="path735" /></g></svg>
